<svg version="1.2" baseProfile="tiny-ps" xmlns="http://www.w3.org/2000/svg" viewBox="0 0 36 36" width="36" height="36">
	<title>icon-ppt-svg</title>
	<style>
		tspan { white-space:pre }
		.shp0 { fill: #ff8a65 } 
		.shp1 { fill: #fbe9e7 } 
		.shp2 { fill: #e64a19 } 
		.shp3 { fill: #ffffff } 
	</style>
	<path id="Layer" class="shp0" d="M35 4L19 4L19 32L35 32C35.55 32 36 31.55 36 31L36 5C36 4.45 35.55 4 35 4Z" />
	<path id="Layer" fill-rule="evenodd" class="shp1" d="M18 25L32 25L32 23L18 23L18 25ZM18 29L32 29L32 27L18 27L18 29ZM24 9C20.69 9 18 11.69 18 15C18 18.31 20.69 21 24 21C27.31 21 30 18.31 30 15L24 15L24 9Z" />
	<path id="Layer" class="shp1" d="M26 7L26 13L32 13C32 9.69 29.31 7 26 7Z" />
	<path id="Layer" class="shp2" d="M21 36L0 32L0 4L21 0L21 36Z" />
	<path id="Layer" fill-rule="evenodd" class="shp3" d="M16 15.46C16 16.87 15.5 18 14.52 18.87C13.53 19.74 12.21 20.18 10.55 20.18L9 20.18L9 25L6 25L6 11L10.83 11C14.27 11 16 12.49 16 15.46ZM12.75 15.58C12.75 14.14 11.94 13.42 10.29 13.42L9 13.42L9 17.79L10.29 17.79C11.93 17.79 12.75 17.05 12.75 15.58Z" />
</svg>