<?xml version="1.0" encoding="utf-8"?>
<!-- Generator: Adobe Illustrator 22.1.0, SVG Export Plug-In . SVG Version: 6.00 Build 0)  -->
<svg version="1.1" id="Layer_1" xmlns="http://www.w3.org/2000/svg" xmlns:xlink="http://www.w3.org/1999/xlink" x="0px" y="0px"
	 viewBox="0 0 917.6 363.4" style="enable-background:new 0 0 917.6 363.4;" xml:space="preserve">
<style type="text/css">
	.st0{fill:#E5E5E5;stroke:#E5E5E5;stroke-width:3;stroke-linecap:round;stroke-linejoin:round;stroke-miterlimit:10;}
	.st1{fill:#F5F5F5;}
	.st2{fill:none;stroke:#D8D8D8;stroke-width:3;stroke-linecap:round;stroke-linejoin:round;stroke-miterlimit:10;}
	.st3{fill:none;stroke:#488949;stroke-width:5;stroke-linecap:round;stroke-linejoin:round;stroke-miterlimit:10;}
	.st4{fill:none;stroke:#191919;stroke-width:3;stroke-linecap:round;stroke-linejoin:round;stroke-miterlimit:10;}
	.st5{fill:none;stroke:#A5A5A5;stroke-width:3;stroke-linecap:round;stroke-linejoin:round;stroke-miterlimit:10;}
	.st6{fill:#D8D8D8;stroke:#D8D8D8;stroke-width:3;stroke-linecap:round;stroke-linejoin:round;stroke-miterlimit:10;}
	.st7{fill:#438644;stroke:#438644;stroke-width:3;stroke-linecap:round;stroke-linejoin:round;stroke-miterlimit:10;}
	.st8{fill:#488949;stroke:#488949;stroke-width:3;stroke-linecap:round;stroke-linejoin:round;stroke-miterlimit:10;}
	.st9{fill:#10739E;stroke:#10739E;stroke-width:3;stroke-miterlimit:10;}
	.st10{fill:#488949;}
	.st11{fill:#404040;}
	.st12{fill:#E21313;stroke:#E21313;stroke-width:3;stroke-linecap:round;stroke-linejoin:round;stroke-miterlimit:10;}
	.st13{fill:#FFFFFF;}
	.st14{fill:none;stroke:#404040;stroke-width:5;stroke-linecap:round;stroke-linejoin:round;stroke-miterlimit:10;}
	.st15{enable-background:new    ;}
	.st16{fill:none;stroke:#FFFFFF;stroke-width:0.7;stroke-miterlimit:10;}
	.st17{fill:#10739E;stroke:#10739E;stroke-width:3;stroke-linecap:round;stroke-linejoin:round;stroke-miterlimit:10;}
</style>
<path class="st0" d="M851.1,361.9H230.5c-6.6,0-12-5.4-12-12v-78.7c0-6.6,5.4-12,12-12h620.6c6.6,0,12,5.4,12,12v78.7
	C863.1,356.5,857.7,361.9,851.1,361.9z"/>
<path class="st1" d="M242.6,361.9h-12c-6.6,0-12-5.4-12-12v-78.7c0-6.6,5.4-12,12-12h12V361.9z"/>
<g>
	<line class="st2" x1="256.4" y1="60.7" x2="286.4" y2="90.8"/>
	<line class="st2" x1="325.8" y1="51.4" x2="286.5" y2="90.8"/>
	<line class="st2" x1="325.8" y1="51.4" x2="365.2" y2="90.8"/>
	<line class="st2" x1="404.5" y1="51.4" x2="365.2" y2="90.8"/>
	<line class="st2" x1="404.5" y1="51.4" x2="443.9" y2="90.8"/>
	<line class="st2" x1="483.2" y1="51.4" x2="443.9" y2="90.8"/>
	<line class="st2" x1="483.2" y1="51.4" x2="522.5" y2="90.8"/>
	<line class="st2" x1="559.3" y1="51.4" x2="598.6" y2="90.8"/>
	<line class="st2" x1="638" y1="51.4" x2="598.7" y2="90.8"/>
	<line class="st2" x1="638" y1="51.4" x2="677.3" y2="90.8"/>
	<line class="st2" x1="716.7" y1="51.4" x2="677.3" y2="90.8"/>
	<line class="st2" x1="716.6" y1="51.4" x2="756" y2="90.8"/>
	<line class="st2" x1="795.3" y1="51.4" x2="756" y2="90.8"/>
	<line class="st2" x1="795.3" y1="51.4" x2="825.1" y2="81.2"/>
	<line class="st2" x1="825" y1="61.1" x2="795.3" y2="90.8"/>
	<line class="st2" x1="755.9" y1="51.4" x2="795.3" y2="90.8"/>
	<line class="st2" x1="755.9" y1="51.4" x2="716.6" y2="90.8"/>
	<line class="st2" x1="677.2" y1="51.4" x2="716.5" y2="90.8"/>
	<line class="st2" x1="677.2" y1="51.4" x2="637.9" y2="90.8"/>
	<line class="st2" x1="598.5" y1="51.4" x2="637.8" y2="90.8"/>
	<line class="st2" x1="598.5" y1="51.4" x2="559.2" y2="90.8"/>
	<line class="st2" x1="522.4" y1="51.4" x2="483.1" y2="90.8"/>
	<line class="st2" x1="443.7" y1="51.4" x2="483" y2="90.8"/>
	<line class="st2" x1="443.7" y1="51.4" x2="404.4" y2="90.8"/>
	<line class="st2" x1="365" y1="51.4" x2="404.4" y2="90.8"/>
	<line class="st2" x1="365.1" y1="51.4" x2="325.8" y2="90.8"/>
	<line class="st2" x1="286.4" y1="51.4" x2="325.7" y2="90.8"/>
	<line class="st2" x1="286.4" y1="51.4" x2="256.4" y2="81.5"/>
</g>
<line class="st2" x1="257.4" y1="51.4" x2="522.4" y2="51.4"/>
<line class="st2" x1="256.4" y1="90.8" x2="522.4" y2="90.8"/>
<line class="st2" x1="559.2" y1="51.4" x2="825.2" y2="51.4"/>
<line class="st2" x1="559.2" y1="90.8" x2="825.2" y2="90.8"/>
<g>
	<g>
		<rect x="852.2" y="96.2" class="st2" width="9.7" height="76.8"/>
	</g>
	<rect x="840.5" y="172.9" class="st2" width="21.4" height="29.2"/>
	<line class="st2" x1="861.9" y1="202.1" x2="858.8" y2="219.8"/>
	<line class="st2" x1="840.5" y1="202.1" x2="843.5" y2="219.8"/>
	<line class="st2" x1="843" y1="215.2" x2="859.3" y2="215.2"/>
</g>
<g>
	<g>
		<rect x="219.8" y="96.2" class="st2" width="9.7" height="76.8"/>
	</g>
	<rect x="219.8" y="172.9" class="st2" width="21.4" height="29.2"/>
	<line class="st2" x1="219.8" y1="202.1" x2="222.9" y2="219.8"/>
	<line class="st2" x1="241.2" y1="202.1" x2="238.2" y2="219.8"/>
	<line class="st2" x1="238.6" y1="215.2" x2="222.5" y2="215.2"/>
</g>
<polyline class="st3" points="814.1,143.3 826.1,143.3 826.1,189.1 814.1,189.1 "/>
<rect x="531.4" y="148.2" class="st4" width="19" height="21.4"/>
<line class="st4" x1="540.8" y1="169.6" x2="540.8" y2="183"/>
<rect x="309.1" y="148.2" class="st4" width="8.2" height="10.9"/>
<rect x="345.6" y="148.2" class="st4" width="8.2" height="10.9"/>
<rect x="382.1" y="148.2" class="st4" width="8.2" height="10.9"/>
<rect x="418.6" y="148.2" class="st4" width="8.2" height="10.9"/>
<rect x="455" y="148.2" class="st4" width="8.2" height="10.9"/>
<rect x="491.5" y="148.2" class="st4" width="8.2" height="10.9"/>
<rect x="581.3" y="148.2" class="st4" width="8.2" height="10.9"/>
<rect x="617.7" y="148.2" class="st4" width="8.2" height="10.9"/>
<rect x="654.2" y="148.2" class="st4" width="8.2" height="10.9"/>
<rect x="690.7" y="148.2" class="st4" width="8.2" height="10.9"/>
<rect x="727.2" y="148.2" class="st4" width="8.2" height="10.9"/>
<line class="st4" x1="313.2" y1="160.7" x2="313.2" y2="163"/>
<rect x="276.1" y="148.2" class="st4" width="8.2" height="10.9"/>
<line class="st4" x1="280.2" y1="160.7" x2="280.2" y2="163"/>
<line class="st4" x1="349.7" y1="160.7" x2="349.7" y2="163"/>
<line class="st4" x1="386.2" y1="160.7" x2="386.2" y2="163"/>
<line class="st4" x1="422.7" y1="160" x2="422.7" y2="163"/>
<line class="st4" x1="459.1" y1="160" x2="459.1" y2="163"/>
<line class="st4" x1="495.6" y1="160.7" x2="495.6" y2="163"/>
<line class="st4" x1="585.4" y1="160" x2="585.4" y2="163"/>
<line class="st4" x1="621.8" y1="160" x2="621.8" y2="163"/>
<line class="st4" x1="658.3" y1="160" x2="658.3" y2="163"/>
<line class="st4" x1="694.8" y1="160" x2="694.8" y2="163"/>
<line class="st4" x1="731.3" y1="160" x2="731.3" y2="163"/>
<g>
	<rect x="763.6" y="148.2" class="st4" width="8.2" height="10.9"/>
	<line class="st4" x1="767.7" y1="160" x2="767.7" y2="163"/>
</g>
<g>
	<rect x="797.2" y="148.2" class="st4" width="8.2" height="10.9"/>
	<line class="st4" x1="801.3" y1="160" x2="801.3" y2="163"/>
</g>
<polyline class="st3" points="268,143.3 255.4,143.3 255.4,189.1 268,189.1 "/>
<g>
	<rect x="269.7" y="183" class="st5" width="542.5" height="23.4"/>
	<line class="st5" x1="269" y1="183" x2="263.4" y2="183"/>
	<line class="st5" x1="269" y1="206.3" x2="263.4" y2="206.3"/>
	<line class="st5" x1="818.3" y1="183" x2="812.3" y2="183"/>
	<line class="st5" x1="818.3" y1="206.3" x2="812.3" y2="206.3"/>
</g>
<rect x="219.8" y="46.1" class="st6" width="36.6" height="49.9"/>
<g>
	<rect x="714.4" y="51.6" class="st7" width="7.1" height="86.9"/>
</g>
<g>
	<rect x="361.7" y="51.4" class="st8" width="7.1" height="87.1"/>
</g>
<rect x="825.4" y="46.1" class="st6" width="36.6" height="49.9"/>
<rect x="514.6" y="46.1" class="st8" width="52.8" height="49.9"/>
<g>
	<rect x="251.6" y="138.5" class="st9" width="578.5" height="9.7"/>
</g>
<path class="st10" d="M237.9,76.8h-42.5c-1.8,0-3.3-1.5-3.3-3.3v-3.7c0-1.8,1.5-3.3,3.3-3.3h42.5c1.8,0,3.3,1.5,3.3,3.3v3.7
	C241.2,75.3,239.7,76.8,237.9,76.8z"/>
<path class="st11" d="M886.3,76.3h-42.5c-1.8,0-3.3-1.5-3.3-3.3v-3.7c0-1.8,1.5-3.3,3.3-3.3h42.5c1.8,0,3.3,1.5,3.3,3.3V73
	C889.6,74.8,888.1,76.3,886.3,76.3z"/>
<path class="st10" d="M183,63.7v-6.5c0-3.8-3.1-6.9-6.9-6.9c-3.8,0-6.9,3.1-6.9,6.9v6.5c-2.5,2-4.1,5.1-4.1,8.6c0,6.1,4.9,11,11,11
	s11-4.9,11-11C187.1,68.8,185.5,65.7,183,63.7z M172,57.1c0-2.3,1.9-4.1,4.1-4.1c2.2,0,4.1,1.9,4.1,4.1V62c-1.3-0.5-2.7-0.8-4.1-0.8
	c-1.4,0-2.9,0.3-4.1,0.8V57.1z M176.1,80.5c-4.5,0-8.3-3.7-8.3-8.2s3.7-8.3,8.3-8.3s8.3,3.7,8.3,8.3S180.6,80.5,176.1,80.5z
	 M178.9,72.2c0,1.5-1.2,2.8-2.8,2.8s-2.8-1.2-2.8-2.8s1.2-2.8,2.8-2.8C177.7,69.4,178.9,70.7,178.9,72.2z"/>
<g>
	<path class="st10" d="M851.1,228L851.1,228c2.8,0,5.3-2.3,5.3-4.9v-12.7c0-2.6-2.5-4.9-5.3-4.9l0,0c-2.8,0-5.3,2.3-5.3,4.9v12.7
		C845.9,225.8,848.3,228,851.1,228z"/>
</g>
<g>
	<polyline class="st3" points="253.1,280.7 253.1,322.9 280.7,322.9 	"/>
	<path class="st10" d="M278.9,294.2v-6.6c0-3.8-3.2-7-7-7s-7,3.2-7,7v6.6c-2.6,2-4.2,5.2-4.2,8.7c0,6.1,4.9,11.2,11.2,11.2
		c6.1,0,11.2-4.9,11.2-11.2C283.1,299.4,281.5,296.3,278.9,294.2z M267.8,287.6c0-2.3,1.9-4.2,4.2-4.2s4.2,1.9,4.2,4.2v5
		c-1.3-0.5-2.7-0.9-4.2-0.9c-1.4,0-2.9,0.3-4.2,0.9V287.6z M272,311.3c-4.6,0-8.4-3.8-8.4-8.4s3.8-8.4,8.4-8.4s8.4,3.8,8.4,8.4
		S276.6,311.3,272,311.3z M274.7,302.9c0,1.5-1.3,2.8-2.8,2.8s-2.8-1.3-2.8-2.8s1.3-2.8,2.8-2.8
		C273.6,300.1,274.7,301.4,274.7,302.9z"/>
</g>
<g>
	<polyline class="st3" points="800.3,323.1 828.3,323.1 828.3,280.4 	"/>
	<path class="st10" d="M816.6,294.1v-6.7c0-3.9-3.1-7.1-7.1-7.1c-3.9,0-7.1,3.1-7.1,7.1v6.7c-2.5,2-4.2,5.2-4.2,8.8
		c0,6.2,5,11.2,11.2,11.2s11.2-5,11.2-11.2C820.9,299.3,819.2,296.2,816.6,294.1z M805.4,287.4c0-2.3,1.9-4.2,4.2-4.2
		s4.2,1.9,4.2,4.2v5c-1.3-0.5-2.7-0.8-4.2-0.8s-2.9,0.3-4.2,0.8V287.4z M809.6,311.3c-4.7,0-8.4-3.8-8.4-8.4s3.8-8.4,8.4-8.4
		c4.6,0,8.4,3.8,8.4,8.4S814.2,311.3,809.6,311.3z M812.4,302.9c0,1.5-1.3,2.8-2.8,2.8s-2.8-1.3-2.8-2.8s1.3-2.8,2.8-2.8
		S812.4,301.4,812.4,302.9z"/>
</g>
<g>
	<rect x="581.3" y="50.3" class="st12" width="44.9" height="41.6"/>
	<g>
		<path class="st13" d="M603.7,88.8c-9.9,0-17.9-8.1-17.9-18s8.1-18,18-17.9c9.9,0,17.9,8.1,17.9,18S613.7,88.8,603.7,88.8z
			 M603.7,87.5c-4.9-8.3-9.6-16.4-14.4-24.7c-3.8,6.5-2.7,15.9,4.4,21.4c6.9,5.2,16.8,4.2,22.5-2.4c5.4-6.2,4.7-14.5,1.9-18.9
			C613.3,71,608.6,79.2,603.7,87.5z M615.9,64.1c-8.1,0-16.1,0-24.2,0c4,6.9,8.1,13.8,12.1,20.7C607.8,77.8,611.8,71,615.9,64.1z
			 M618.2,62.8c-2.4-4.5-7.9-8.6-15-8.4c-2.8,0.1-5.6,0.9-8,2.4c-2.5,1.5-4.4,3.5-5.9,6.1C599,62.8,608.6,62.8,618.2,62.8z"/>
		<path class="st13" d="M605.8,68.2c-0.1,0.7-0.2,1.6-0.3,2.5c-0.2,1.7-0.5,3.5-0.6,5.2c0,0.3-0.1,0.6-0.1,0.8
			c-0.1,0.6-0.5,0.8-0.9,0.8c-0.5,0-0.9-0.4-1-0.8c-0.1-0.5-0.1-0.9-0.2-1.3c-0.3-2.1-0.5-4.1-0.7-6.2c-0.1-0.5-0.1-0.8-0.1-1.3
			c0.1-1,1-1.8,2-1.7C605,66.2,605.8,67.1,605.8,68.2z"/>
		<path class="st13" d="M605.3,80.4c0,0.7-0.6,1.4-1.5,1.4c-0.7,0-1.4-0.6-1.4-1.5c0-0.7,0.6-1.4,1.4-1.4
			C604.6,79.1,605.3,79.7,605.3,80.4z"/>
	</g>
</g>
<g>
	<g>
		<rect x="457.9" y="50.3" class="st8" width="44.9" height="41.6"/>
	</g>
	<g>
		<path class="st13" d="M485.1,88.5c-3.2,0-6.5,0-9.7,0c-0.3-0.1-0.7-0.2-1-0.3c-1.5-0.7-2.2-1.8-2.2-3.5c0-8.2,0-16.3,0-24.5
			c0-0.1,0-0.2,0-0.3c0.1-1.9,1.6-3.4,3.5-3.5c0.3,0,0.6,0,0.9,0c0-0.3,0-0.6,0-0.8c0-0.9,0.6-1.6,1.4-2c0.1,0,0.3-0.1,0.4-0.1
			c1.2,0,2.5,0,3.7,0c0,0,0.1,0,0.1,0.1c1.1,0.3,1.7,1.1,1.7,2.3c0,0.2,0,0.4,0,0.6c0.3,0,0.5,0,0.7,0c0.5,0.1,1.1,0.1,1.5,0.3
			c1.4,0.7,2.1,1.9,2.1,3.5c0,8.1,0,16.2,0,24.3c0,0.1,0,0.2,0,0.4c0,1-0.4,1.8-1.1,2.5C486.6,88.1,485.9,88.3,485.1,88.5z
			 M485.4,79.8c0-1.6,0-3.3,0-4.9c0-0.8-0.5-1.1-1.2-0.7c-2.8,1.4-5.6,2.8-8.4,4.2c-0.4,0.2-0.6,0.5-0.6,0.9c0,1.8,0,3.6,0,5.4
			c0,0.7,0.2,0.9,0.9,0.9c2.8,0,5.5,0,8.3,0c0.7,0,1-0.2,1-1C485.4,83,485.4,81.4,485.4,79.8z"/>
	</g>
</g>
<g>
	<path class="st11" d="M906.6,67.1c-1.5,0-2.7,1.2-2.7,2.8c0,1.5,1.2,2.7,2.7,2.7s2.7-1.2,2.7-2.7C909.4,68.4,908.1,67.1,906.6,67.1
		z M906.6,67.1c-1.5,0-2.7,1.2-2.7,2.8c0,1.5,1.2,2.7,2.7,2.7s2.7-1.2,2.7-2.7C909.4,68.4,908.1,67.1,906.6,67.1z M913.5,61.3v-6.6
		c0-3.8-3.1-6.9-6.9-6.9c-3.8,0-6.9,3.1-6.9,6.9v0.6h2.7v-0.6c0-2.3,1.9-4.1,4.1-4.1s4.1,1.9,4.1,4.1v4.9c-1.3-0.5-2.7-0.8-4.1-0.8
		c-0.9,0-1.8,0.1-2.6,0.3c-0.3,0.1-0.5,0.1-0.8,0.2c-0.2,0.1-0.4,0.1-0.5,0.2c-1.2,0.5-2.2,1.1-2.9,1.7l0,0c-0.6,0.5-1.2,1-1.6,1.6
		c-1.5,1.9-2.5,4.3-2.5,7c0,6.1,4.9,11,11,11s11-4.9,11-11C917.6,66.4,916,63.3,913.5,61.3z M906.6,78.1c-4.6,0-8.2-3.7-8.2-8.2
		c0-4.6,3.7-8.3,8.2-8.3s8.2,3.7,8.2,8.3C914.9,74.4,911.2,78.1,906.6,78.1z M906.6,67.1c-1.5,0-2.7,1.2-2.7,2.8
		c0,1.5,1.2,2.7,2.7,2.7s2.7-1.2,2.7-2.7C909.4,68.4,908.1,67.1,906.6,67.1z"/>
</g>
<circle class="st11" cx="230.5" cy="217.9" r="12"/>
<circle class="st10" cx="851.1" cy="216.7" r="12"/>
<g>
	<path class="st11" d="M250.5,347.6v-8.5h1.7v7.1h4.3v1.4H250.5z"/>
	<path class="st11" d="M257.8,347.6V339h6.4v1.5h-4.6v1.9h4.3v1.4h-4.3v2.3h4.8v1.4h-6.6L257.8,347.6L257.8,347.6z"/>
	<path class="st11" d="M265.8,347.6V339h5.9v1.5h-4.2v2h3.6v1.5h-3.6v3.7h-1.7L265.8,347.6L265.8,347.6z"/>
	<path class="st11" d="M275.1,347.6v-7.1h-2.5V339h6.8v1.5h-2.5v7.1H275.1z"/>
</g>
<g>
	<path class="st11" d="M520.3,344.4l1.7,0.5c-0.3,0.9-0.7,1.6-1.3,2.1s-1.4,0.7-2.3,0.7c-1.1,0-2.1-0.4-2.8-1.2
		c-0.7-0.8-1.1-1.8-1.1-3.2c0-1.4,0.4-2.5,1.1-3.3s1.7-1.2,2.9-1.2c1.1,0,1.9,0.3,2.6,0.9c0.4,0.4,0.7,0.9,0.9,1.6l-1.7,0.4
		c-0.1-0.4-0.3-0.8-0.6-1.1c-0.3-0.3-0.7-0.4-1.2-0.4c-0.6,0-1.2,0.2-1.5,0.7s-0.6,1.2-0.6,2.2c0,1.1,0.2,1.9,0.6,2.3
		c0.4,0.4,0.9,0.7,1.5,0.7c0.5,0,0.9-0.1,1.2-0.4C520,345.4,520.2,345.1,520.3,344.4z"/>
	<path class="st11" d="M523.5,347.6V339h6.4v1.5h-4.6v1.9h4.3v1.4h-4.3v2.3h4.8v1.4h-6.6L523.5,347.6L523.5,347.6z"/>
	<path class="st11" d="M531.5,347.6V339h1.7l3.5,5.7V339h1.6v8.6h-1.7l-3.5-5.6v5.6H531.5z"/>
	<path class="st11" d="M542.1,347.6v-7.1h-2.5V339h6.8v1.5h-2.5v7.1H542.1z"/>
	<path class="st11" d="M547.5,347.6V339h6.4v1.5h-4.6v1.9h4.3v1.4h-4.3v2.3h4.8v1.4h-6.6L547.5,347.6L547.5,347.6z"/>
	<path class="st11" d="M555.5,347.6V339h3.7c0.9,0,1.6,0.1,2,0.2s0.7,0.4,1,0.8s0.4,0.8,0.4,1.4s-0.2,1.2-0.6,1.6
		c-0.4,0.4-0.9,0.7-1.7,0.8c0.4,0.2,0.7,0.5,0.9,0.7s0.6,0.7,1,1.4l1,1.7h-2.1l-1.3-1.9c-0.4-0.7-0.8-1.1-0.9-1.3
		c-0.1-0.2-0.3-0.3-0.5-0.4s-0.5-0.1-0.9-0.1h-0.4v3.6L555.5,347.6L555.5,347.6z M557.2,342.6h1.3c0.8,0,1.4,0,1.6-0.1
		s0.4-0.2,0.5-0.4c0.1-0.2,0.2-0.4,0.2-0.6c0-0.3-0.1-0.5-0.2-0.7c-0.1-0.2-0.4-0.3-0.7-0.3c-0.1,0-0.6,0-1.3,0h-1.4L557.2,342.6
		L557.2,342.6z"/>
</g>
<g>
	<path class="st11" d="M798.1,347.6V339h3.7c0.9,0,1.6,0.1,2,0.2s0.7,0.4,1,0.8s0.4,0.8,0.4,1.4s-0.2,1.2-0.6,1.6s-0.9,0.7-1.7,0.8
		c0.4,0.2,0.7,0.5,0.9,0.7s0.6,0.7,1,1.4l1,1.7h-2.1l-1.3-1.9c-0.4-0.7-0.8-1.1-0.9-1.3s-0.3-0.3-0.5-0.4s-0.5-0.1-0.9-0.1h-0.4v3.6
		L798.1,347.6L798.1,347.6z M799.8,342.6h1.3c0.8,0,1.4,0,1.6-0.1s0.4-0.2,0.5-0.4s0.2-0.4,0.2-0.6c0-0.3-0.1-0.5-0.2-0.7
		s-0.4-0.3-0.7-0.3c-0.1,0-0.6,0-1.3,0h-1.4L799.8,342.6L799.8,342.6z"/>
	<path class="st11" d="M806.7,347.6V339h1.7v8.6H806.7z"/>
	<path class="st11" d="M814.1,344.4V343h3.7v3.4c-0.4,0.4-0.9,0.7-1.6,0.9s-1.4,0.4-2.1,0.4c-0.9,0-1.7-0.2-2.3-0.6
		s-1.2-0.9-1.5-1.6s-0.5-1.5-0.5-2.3c0-0.9,0.2-1.7,0.6-2.4s0.9-1.2,1.6-1.6c0.6-0.3,1.2-0.4,2.1-0.4c1.1,0,1.9,0.2,2.5,0.7
		s1,1.1,1.2,1.9l-1.7,0.3c-0.1-0.4-0.3-0.8-0.7-1s-0.8-0.4-1.3-0.4c-0.8,0-1.4,0.2-1.8,0.7s-0.7,1.2-0.7,2.1c0,1,0.2,1.8,0.7,2.3
		s1,0.8,1.8,0.8c0.4,0,0.7-0.1,1.1-0.2s0.7-0.3,0.9-0.5v-1.1L814.1,344.4L814.1,344.4z"/>
	<path class="st11" d="M819.4,347.6V339h1.7v3.4h3.4V339h1.7v8.6h-1.7v-3.8h-3.4v3.8H819.4z"/>
	<path class="st11" d="M830,347.6v-7.1h-2.5V339h6.8v1.5h-2.5v7.1H830z"/>
</g>
<g>
	<g>
		<path class="st11" d="M545.4,300.1c-1.6,0-2.8,1.3-2.8,2.8s1.3,2.8,2.8,2.8s2.8-1.3,2.8-2.8S547,300.1,545.4,300.1z M545.4,300.1
			c-1.6,0-2.8,1.3-2.8,2.8s1.3,2.8,2.8,2.8s2.8-1.3,2.8-2.8S547,300.1,545.4,300.1z M552.5,294.1v-6.7c0-3.9-3.2-7-7-7
			c-3.9,0-7,3.2-7,7v0.7h2.8v-0.7c0-2.3,1.9-4.2,4.3-4.2c2.4,0,4.3,1.9,4.3,4.2v5c-1.3-0.5-2.8-0.8-4.3-0.8c-0.9,0-1.8,0.1-2.7,0.3
			c-0.3,0.1-0.6,0.2-0.8,0.3c-0.2,0.1-0.3,0.2-0.5,0.2c-1.3,0.5-2.3,1.1-3,1.7l0,0c-0.6,0.5-1.2,1.1-1.7,1.7
			c-1.6,1.9-2.6,4.4-2.6,7.1c0,6.2,5,11.3,11.3,11.3c6.2,0,11.3-5,11.3-11.3C556.7,299.3,555.1,296.1,552.5,294.1z M545.4,311.3
			c-4.7,0-8.5-3.8-8.5-8.5s3.8-8.5,8.5-8.5s8.5,3.8,8.5,8.5S550.1,311.3,545.4,311.3z M545.4,300.1c-1.6,0-2.8,1.3-2.8,2.8
			s1.3,2.8,2.8,2.8s2.8-1.3,2.8-2.8S547,300.1,545.4,300.1z"/>
	</g>
	<g>
		<polyline class="st14" points="540.1,273.6 516,307.6 538.1,323.3 		"/>
	</g>
</g>
<g>
	<path class="st11" d="M235.3,342.6h-9.9v-2h8.3v-5h1.7L235.3,342.6L235.3,342.6z"/>
	<path class="st11" d="M235.3,325.1v2.2l-2.3,0.9v4l2.3,0.8v2.1l-10-3.9v-2.1L235.3,325.1z M231.3,328.8l-3.7,1.4l3.7,1.4V328.8z"/>
	<path class="st11" d="M235.3,322.8H227v3h-1.7v-8h1.7v3h8.3V322.8z"/>
	<path class="st11" d="M231.6,310.1l0.6-2c1.1,0.3,1.9,0.8,2.4,1.5s0.8,1.6,0.8,2.7c0,1.3-0.5,2.4-1.4,3.3s-2.2,1.3-3.7,1.3
		c-1.7,0-3-0.4-3.9-1.3s-1.4-2-1.4-3.4c0-1.2,0.4-2.2,1.1-3c0.4-0.5,1-0.8,1.8-1l0.5,2c-0.5,0.1-0.9,0.4-1.2,0.7
		c-0.3,0.4-0.5,0.8-0.5,1.4c0,0.7,0.3,1.3,0.8,1.8s1.4,0.7,2.6,0.7c1.3,0,2.2-0.2,2.7-0.7s0.8-1,0.8-1.8c0-0.5-0.2-1-0.5-1.4
		S232.3,310.3,231.6,310.1z"/>
	<path class="st11" d="M235.3,306.4h-10v-2h3.9v-4h-3.9v-2h10v2h-4.4v4h4.4V306.4z"/>
	<path class="st11" d="M235.3,296.3h-10v-7.4h1.7v5.4h2.2v-5h1.7v5h2.7v-5.6h1.7C235.3,288.7,235.3,296.3,235.3,296.3z"/>
	<path class="st11" d="M232,287.5l-0.2-2c0.7-0.1,1.1-0.4,1.5-0.7c0.3-0.4,0.5-0.9,0.5-1.5c0-0.7-0.1-1.1-0.4-1.5
		c-0.3-0.3-0.6-0.5-1-0.5c-0.2,0-0.4,0.1-0.6,0.2s-0.3,0.4-0.4,0.7c-0.1,0.2-0.2,0.8-0.4,1.6c-0.3,1.1-0.6,1.8-1,2.3
		c-0.6,0.6-1.2,0.9-2,0.9c-0.5,0-1-0.1-1.4-0.4s-0.8-0.7-1-1.3c-0.2-0.5-0.3-1.2-0.3-2c0-1.3,0.3-2.2,0.8-2.8c0.6-0.6,1.3-1,2.2-1
		l0.1,2c-0.5,0.1-0.9,0.3-1.1,0.6c-0.2,0.3-0.3,0.7-0.3,1.3c0,0.6,0.1,1,0.4,1.4c0.2,0.2,0.4,0.3,0.6,0.3s0.4-0.1,0.6-0.3
		c0.2-0.3,0.4-0.9,0.7-1.9s0.5-1.7,0.7-2.2s0.6-0.8,1-1.1c0.4-0.3,1-0.4,1.6-0.4s1.1,0.2,1.6,0.5s0.9,0.8,1.1,1.4s0.4,1.3,0.4,2.2
		c0,1.3-0.3,2.2-0.9,2.9C234,286.9,233.2,287.3,232,287.5z"/>
</g>
<g>
	<g>
		<g>
			<rect x="342.8" y="1.5" class="st8" width="44.9" height="41.6"/>
		</g>
	</g>
	<path class="st13" d="M371.2,22.1c-0.5-0.4-0.7-0.9-0.6-1.6c0.2-0.6,0.7-1.1,1.4-1.1c0.5,0,1,0,1.5,0c0-0.6,0-1.2,0-1.8
		c0-0.3-0.1-0.5-0.4-0.7c-0.4-0.4-0.9-0.4-1.5-0.4c-1,0-2,0-3,0c0-0.3,0-0.6,0-0.9c-0.7,0-1.3,0-1.9,0c0,0.5,0,0.9,0,1.4
		c-2.9,0-5.8,0-8.8,0c0,0.1,0.1,0.2,0.1,0.3c1.1,2.8,2.2,5.5,3.4,8.3c0.1,0.1,0.2,0.3,0.3,0.3c2.4,0.8,3.6,3.2,2.8,5.6
		c0,0.1,0,0.1-0.1,0.2c0.3,0.1,0.7,0.2,1,0.4c1.3,0.5,2.3,1.4,3.1,2.5c0.1,0.1,0.1,0.2,0.1,0.3c0,0.8,0,1.6,0,2.5
		c-5.5,0-10.9,0-16.4,0c0-0.8,0-1.7,0-2.5c0-0.1,0.1-0.2,0.1-0.3c0.9-1.3,2.2-2.2,3.7-2.7c0.1,0,0.2-0.1,0.4-0.1
		c-0.4-1-0.4-2.1-0.1-3.1c-5.7-0.5-8.2-7.2-3.8-11c-0.3-0.2-0.5-0.3-0.8-0.5c-1.3-1.1-1.7-2.4-1.3-4s1.5-2.5,3.1-2.8
		c0.3-0.1,0.5-0.2,0.6-0.4c0.7-1.4,1.9-2.2,3.4-2.4c2-0.3,3.6,0.2,4.9,1.8c0.5,0.6,0.7,1.2,0.8,2c1.1,0,2.2,0,3.4,0c0,0.5,0,1,0,1.5
		c0.7,0,1.3,0,1.9,0c0-0.3,0-0.6,0-1c0.1,0,0.2,0,0.4,0c1.1,0,2.2,0,3.4,0c0.1,0,0.3-0.1,0.4-0.1c1.5-1.3,3.8-1,5,0.6
		c1.1,1.6,0.7,3.8-1,4.8c-0.2,0.1-0.3,0.3-0.3,0.5c0,0.6,0,1.2,0,1.9c0.4,0,0.9,0,1.3,0c0.8,0,1.3,0.3,1.5,0.9s0.1,1.2-0.5,1.7
		c0,0,0,0,0,0.1l0.1,0.1c1,0.8,1.5,1.8,1.5,3.1c0,0.6,0,1.3-0.1,1.9c-0.4,1.9-2.3,3.1-4.2,2.9c0-1,0-1.9,0-2.9c0.2,0,0.3,0,0.5,0
		c0.5,0,1-0.4,1-1c0-0.3,0-0.7,0-1c0-0.5-0.4-0.9-1-0.9c0,0.6,0,1.2-0.5,1.6c-0.3,0.2-0.6,0.4-1,0.3c-0.9,0-1.3-0.6-1.4-1.9
		c-0.5,0-0.9,0.3-0.9,0.9c0,0.4,0,0.7,0,1.1c0,0.5,0.4,0.9,0.9,0.9c0.2,0,0.3,0,0.5,0c0,1,0,1.9,0,2.9c-1.4,0.1-2.6-0.3-3.5-1.4
		c-0.6-0.7-0.9-1.5-0.9-2.4c0-0.6,0-1.2,0.1-1.8C369.9,23.4,370.4,22.7,371.2,22.1z M360.4,25.7c0-0.1-0.1-0.2-0.1-0.3
		c-1.2-3-2.5-6.1-3.7-9.1c-0.1-0.2-0.1-0.4,0-0.7c1.1-1.9-0.2-4.3-2.4-4.4c-1.5,0-2.8,1-3,2.6c-0.2,1.4,0.7,2.8,2.1,3.1
		c0.3,0.1,0.4,0.2,0.5,0.5c0.9,2.3,1.8,4.5,2.7,6.8c0.3,0.8,0.7,1.7,1,2.5C358.5,26,359.4,25.7,360.4,25.7z M363.8,12.2
		c-2.1,0-4.2,0-6.3,0c0.7,1.3,0.7,2.6,0,3.8c2.1,0,4.2,0,6.3,0C363.8,14.7,363.8,13.5,363.8,12.2z M367.1,34.4
		c-0.1-0.1-0.1-0.1-0.2-0.2c-1.1-1.1-2.5-1.7-4-1.7c-1.7,0-3.4,0-5.1,0c-1.6,0-2.9,0.6-4,1.7c0,0-0.1,0.1-0.1,0.2
		C358.2,34.4,362.6,34.4,367.1,34.4z M367.7,35.4c-4.8,0-9.7,0-14.5,0c0,0.3,0,0.6,0,0.9c4.8,0,9.7,0,14.5,0
		C367.7,36,367.7,35.7,367.7,35.4z M372.5,14.1c0,1.3,1.1,2.4,2.4,2.4s2.4-1.1,2.4-2.4s-1.1-2.4-2.4-2.4
		C373.6,11.7,372.5,12.7,372.5,14.1z M358.4,31.5c-0.7-1.3-0.6-2.4,0.3-3.2c0.8-0.7,2-0.9,2.9-0.3c0.6,0.4,1,0.9,1.1,1.6
		c0.2,0.7,0,1.3-0.4,2c0.3,0,0.6,0,0.8,0c0.2,0,0.3,0,0.4-0.2c0.6-1.4,0.1-3.1-1.2-4c-1.2-0.9-3-0.8-4.1,0.2s-1.5,2.5-1,3.9
		c0,0.1,0.2,0.2,0.2,0.2C357.8,31.5,358.1,31.5,358.4,31.5z M353.2,18.3h-0.1c-1.5,1.2-2.2,3.3-1.7,5.2c0.6,2.2,2.6,3.8,4.9,4
		c0.6,0.1,0.8,0,0.5-0.6c-0.1-0.2-0.2-0.3-0.5-0.4c-0.5-0.1-0.9-0.2-1.3-0.4c-1.6-0.8-2.7-2-2.7-3.9c0-1.1,0.4-2.1,1.2-2.9
		c0.1-0.1,0.2-0.2,0.1-0.3C353.5,18.9,353.3,18.6,353.2,18.3z M355.9,10.6c1.4-2.1,4.8-1.7,5.5,0.6c0.3,0,0.6,0,0.9,0
		c-0.1-1.4-1.6-2.7-3.4-2.9c-1.6-0.2-3.5,0.8-3.9,2C355.3,10.4,355.5,10.5,355.9,10.6z M376.9,29c1.1-0.2,1.8-0.8,2.2-1.8
		c0.3-1,0.3-2,0-3c-0.4-1.1-1.6-1.9-2.7-1.8c0,0.3,0,0.6,0,0.9c1.1,0.2,1.8,0.8,1.9,1.7c0,0.5,0,1,0,1.4c-0.1,0.6-0.4,1.1-1,1.5
		c-0.1,0.1-0.3,0.1-0.5,0.2C376.9,28.4,376.9,28.7,376.9,29z M373.5,22.3c-0.1,0-0.2,0-0.2,0c-1.3,0.1-2.4,1.1-2.6,2.3
		c-0.1,0.7-0.1,1.4,0,2.1c0.2,1.2,1.3,2.2,2.3,2.3c0-0.3,0-0.6,0-0.9c-0.1,0-0.1-0.1-0.2-0.1c-0.7-0.3-1.1-0.8-1.2-1.5
		c-0.1-0.5,0-1,0-1.5c0.1-0.8,0.7-1.5,1.5-1.7c0.1,0,0.2,0,0.4-0.1C373.5,22.9,373.5,22.6,373.5,22.3z M354,20.2
		c-0.8,0.8-1.1,2.2-0.6,3.3c0.5,1.1,1.9,2.1,2.7,2C355.5,23.8,354.7,22,354,20.2z M361.9,30.1c0-0.8-0.6-1.5-1.4-1.5
		S359,29.2,359,30s0.6,1.5,1.4,1.5C361.2,31.5,361.9,30.8,361.9,30.1z M374.9,20.4c-0.9,0-1.9,0-2.8,0c-0.4,0-0.6,0.2-0.6,0.5
		s0.2,0.5,0.6,0.5c1.9,0,3.7,0,5.6,0c0.4,0,0.6-0.2,0.6-0.5s-0.2-0.5-0.6-0.5C376.8,20.4,375.9,20.4,374.9,20.4z M369.6,15.5
		c0.7,0,1.5,0,2.2,0c-0.4-1-0.4-1.9,0-2.9c-0.8,0-1.5,0-2.2,0C369.6,13.6,369.6,14.5,369.6,15.5z M364.8,12.2c0,1.3,0,2.6,0,3.8
		c0.3,0,0.6,0,0.9,0c0-1.3,0-2.6,0-3.8C365.4,12.2,365.1,12.2,364.8,12.2z M374.4,22.3c0,0.8,0,1.6,0,2.4c0,0.3,0.2,0.5,0.5,0.5
		c0.2,0,0.5-0.2,0.5-0.4c0-0.8,0-1.6,0-2.4C375.1,22.3,374.8,22.3,374.4,22.3z M360.3,11.2c-0.4-0.7-1.2-1.1-2.1-0.9
		c-0.7,0.1-1.4,0.5-1.5,0.9C357.9,11.2,359.1,11.2,360.3,11.2z M374.5,17.5c0,0.6,0,1.3,0,1.9c0.3,0,0.6,0,0.9,0c0-0.7,0-1.3,0-1.9
		C375.1,17.5,374.8,17.5,374.5,17.5z M366.7,14.5c0.7,0,1.3,0,1.9,0c0-0.3,0-0.6,0-0.9c-0.6,0-1.3,0-1.9,0
		C366.7,13.9,366.7,14.2,366.7,14.5z M354.1,16c-1.1,0-1.9-0.9-1.9-1.9c0-1.1,0.9-1.9,2-1.9c1,0,1.9,0.9,1.9,1.9S355.2,16,354.1,16z
		 M355.1,14.1c0-0.5-0.4-1-1-1c-0.5,0-1,0.4-1,1c0,0.5,0.5,1,1,1C354.7,15,355.1,14.6,355.1,14.1z M376.4,14.1
		c0,0.8-0.7,1.5-1.5,1.5s-1.4-0.7-1.4-1.5s0.7-1.5,1.5-1.5C375.7,12.6,376.4,13.3,376.4,14.1z M374.9,13.6c-0.3,0-0.5,0.2-0.5,0.5
		s0.2,0.5,0.5,0.5s0.5-0.2,0.5-0.5S375.2,13.6,374.9,13.6z"/>
</g>
<g>
	<g>
		<g>
			<rect x="695.5" y="1.5" class="st8" width="44.9" height="41.6"/>
		</g>
	</g>
	<path class="st13" d="M723.9,22.1c-0.5-0.4-0.7-0.9-0.6-1.6c0.2-0.6,0.7-1.1,1.4-1.1c0.5,0,1,0,1.5,0c0-0.6,0-1.2,0-1.8
		c0-0.3-0.1-0.5-0.4-0.7c-0.4-0.4-0.9-0.4-1.5-0.4c-1,0-2,0-3,0c0-0.3,0-0.6,0-0.9c-0.7,0-1.3,0-1.9,0c0,0.5,0,0.9,0,1.4
		c-2.9,0-5.8,0-8.8,0c0,0.1,0.1,0.2,0.1,0.3c1.1,2.8,2.2,5.5,3.4,8.3c0.1,0.1,0.2,0.3,0.3,0.3c2.4,0.8,3.6,3.2,2.8,5.6
		c0,0.1,0,0.1-0.1,0.2c0.3,0.1,0.7,0.2,1,0.4c1.3,0.5,2.3,1.4,3.1,2.5c0.1,0.1,0.1,0.2,0.1,0.3c0,0.8,0,1.6,0,2.5
		c-5.5,0-10.9,0-16.4,0c0-0.8,0-1.7,0-2.5c0-0.1,0.1-0.2,0.1-0.3c0.9-1.3,2.2-2.2,3.7-2.7c0.1,0,0.2-0.1,0.4-0.1
		c-0.4-1-0.4-2.1-0.1-3.1c-5.7-0.5-8.2-7.2-3.8-11c-0.3-0.2-0.5-0.3-0.8-0.5c-1.3-1.1-1.7-2.4-1.3-4s1.5-2.5,3.1-2.8
		c0.3-0.1,0.5-0.2,0.6-0.4c0.7-1.4,1.9-2.2,3.4-2.4c2-0.3,3.6,0.2,4.9,1.8c0.5,0.6,0.7,1.2,0.8,2c1.1,0,2.2,0,3.4,0c0,0.5,0,1,0,1.5
		c0.7,0,1.3,0,1.9,0c0-0.3,0-0.6,0-1c0.1,0,0.2,0,0.4,0c1.1,0,2.2,0,3.4,0c0.1,0,0.3-0.1,0.4-0.1c1.5-1.3,3.8-1,5,0.6
		c1.1,1.6,0.7,3.8-1,4.8c-0.2,0.1-0.3,0.3-0.3,0.5c0,0.6,0,1.2,0,1.9c0.4,0,0.9,0,1.3,0c0.8,0,1.3,0.3,1.5,0.9s0.1,1.2-0.5,1.7
		c0,0,0,0,0,0.1l0.1,0.1c1,0.8,1.5,1.8,1.5,3.1c0,0.6,0,1.3-0.1,1.9c-0.4,1.9-2.3,3.1-4.2,2.9c0-1,0-1.9,0-2.9c0.2,0,0.3,0,0.5,0
		c0.5,0,1-0.4,1-1c0-0.3,0-0.7,0-1c0-0.5-0.4-0.9-1-0.9c0,0.6,0,1.2-0.5,1.6c-0.3,0.2-0.6,0.4-1,0.3c-0.9,0-1.3-0.6-1.4-1.9
		c-0.5,0-0.9,0.3-0.9,0.9c0,0.4,0,0.7,0,1.1c0,0.5,0.4,0.9,0.9,0.9c0.2,0,0.3,0,0.5,0c0,1,0,1.9,0,2.9c-1.4,0.1-2.6-0.3-3.5-1.4
		c-0.6-0.7-0.9-1.5-0.9-2.4c0-0.6,0-1.2,0.1-1.8C722.6,23.4,723.1,22.7,723.9,22.1z M713.1,25.7c0-0.1-0.1-0.2-0.1-0.3
		c-1.2-3-2.5-6.1-3.7-9.1c-0.1-0.2-0.1-0.4,0-0.7c1.1-1.9-0.2-4.3-2.4-4.4c-1.5,0-2.8,1-3,2.6c-0.2,1.4,0.7,2.8,2.1,3.1
		c0.3,0.1,0.4,0.2,0.5,0.5c0.9,2.3,1.8,4.5,2.7,6.8c0.3,0.8,0.7,1.7,1,2.5C711.2,26,712.1,25.7,713.1,25.7z M716.5,12.2
		c-2.1,0-4.2,0-6.3,0c0.7,1.3,0.7,2.6,0,3.8c2.1,0,4.2,0,6.3,0C716.5,14.7,716.5,13.5,716.5,12.2z M719.8,34.4
		c-0.1-0.1-0.1-0.1-0.2-0.2c-1.1-1.1-2.5-1.7-4-1.7c-1.7,0-3.4,0-5.1,0c-1.6,0-2.9,0.6-4,1.7c0,0-0.1,0.1-0.1,0.2
		C710.9,34.4,715.3,34.4,719.8,34.4z M720.4,35.4c-4.8,0-9.7,0-14.5,0c0,0.3,0,0.6,0,0.9c4.8,0,9.7,0,14.5,0
		C720.4,36,720.4,35.7,720.4,35.4z M725.2,14.1c0,1.3,1.1,2.4,2.4,2.4c1.3,0,2.4-1.1,2.4-2.4s-1.1-2.4-2.4-2.4
		C726.3,11.7,725.2,12.7,725.2,14.1z M711.1,31.5c-0.7-1.3-0.6-2.4,0.3-3.2c0.8-0.7,2-0.9,2.9-0.3c0.6,0.4,1,0.9,1.1,1.6
		c0.2,0.7,0,1.3-0.4,2c0.3,0,0.6,0,0.8,0s0.3,0,0.4-0.2c0.6-1.4,0.1-3.1-1.2-4c-1.2-0.9-3-0.8-4.1,0.2s-1.5,2.5-1,3.9
		c0,0.1,0.2,0.2,0.2,0.2C710.5,31.5,710.8,31.5,711.1,31.5z M705.9,18.3L705.9,18.3c-1.6,1.2-2.3,3.3-1.8,5.2c0.6,2.2,2.6,3.8,4.9,4
		c0.6,0.1,0.8,0,0.5-0.6c-0.1-0.2-0.2-0.3-0.5-0.4c-0.5-0.1-0.9-0.2-1.3-0.4c-1.6-0.8-2.7-2-2.7-3.9c0-1.1,0.4-2.1,1.2-2.9
		c0.1-0.1,0.2-0.2,0.1-0.3C706.2,18.9,706,18.6,705.9,18.3z M708.6,10.6c1.4-2.1,4.8-1.7,5.5,0.6c0.3,0,0.6,0,0.9,0
		c-0.1-1.4-1.6-2.7-3.4-2.9c-1.6-0.2-3.5,0.8-3.9,2C708,10.4,708.2,10.5,708.6,10.6z M729.6,29c1.1-0.2,1.8-0.8,2.2-1.8
		c0.3-1,0.3-2,0-3c-0.4-1.1-1.6-1.9-2.7-1.8c0,0.3,0,0.6,0,0.9c1.1,0.2,1.8,0.8,1.9,1.7c0,0.5,0,1,0,1.4c-0.1,0.6-0.4,1.1-1,1.5
		c-0.1,0.1-0.3,0.1-0.5,0.2C729.6,28.4,729.6,28.7,729.6,29z M726.2,22.3c-0.1,0-0.2,0-0.2,0c-1.3,0.1-2.4,1.1-2.6,2.3
		c-0.1,0.7-0.1,1.4,0,2.1c0.2,1.2,1.3,2.2,2.3,2.3c0-0.3,0-0.6,0-0.9c-0.1,0-0.1-0.1-0.2-0.1c-0.7-0.3-1.1-0.8-1.2-1.5
		c-0.1-0.5,0-1,0-1.5c0.1-0.8,0.7-1.5,1.5-1.7c0.1,0,0.2,0,0.4-0.1C726.2,22.9,726.2,22.6,726.2,22.3z M706.7,20.2
		c-0.8,0.8-1.1,2.2-0.6,3.3c0.5,1.1,1.9,2.1,2.7,2C708.2,23.8,707.4,22,706.7,20.2z M714.6,30.1c0-0.8-0.6-1.5-1.4-1.5
		c-0.8,0-1.5,0.6-1.5,1.4s0.6,1.5,1.4,1.5S714.6,30.8,714.6,30.1z M727.6,20.4c-0.9,0-1.9,0-2.8,0c-0.4,0-0.6,0.2-0.6,0.5
		s0.2,0.5,0.6,0.5c1.9,0,3.7,0,5.6,0c0.4,0,0.6-0.2,0.6-0.5s-0.2-0.5-0.6-0.5C729.5,20.4,728.6,20.4,727.6,20.4z M722.3,15.5
		c0.7,0,1.5,0,2.2,0c-0.4-1-0.4-1.9,0-2.9c-0.8,0-1.5,0-2.2,0C722.3,13.6,722.3,14.5,722.3,15.5z M717.5,12.2c0,1.3,0,2.6,0,3.8
		c0.3,0,0.6,0,0.9,0c0-1.3,0-2.6,0-3.8C718.1,12.2,717.8,12.2,717.5,12.2z M727.1,22.3c0,0.8,0,1.6,0,2.4c0,0.3,0.2,0.5,0.5,0.5
		c0.2,0,0.5-0.2,0.5-0.4c0-0.8,0-1.6,0-2.4C727.8,22.3,727.5,22.3,727.1,22.3z M713,11.2c-0.4-0.7-1.2-1.1-2.1-0.9
		c-0.7,0.1-1.4,0.5-1.5,0.9C710.6,11.2,711.8,11.2,713,11.2z M727.2,17.5c0,0.6,0,1.3,0,1.9c0.3,0,0.6,0,0.9,0c0-0.7,0-1.3,0-1.9
		C727.8,17.5,727.5,17.5,727.2,17.5z M719.4,14.5c0.7,0,1.3,0,1.9,0c0-0.3,0-0.6,0-0.9c-0.6,0-1.3,0-1.9,0
		C719.4,13.9,719.4,14.2,719.4,14.5z M706.8,16c-1.1,0-1.9-0.9-1.9-1.9c0-1.1,0.9-1.9,2-1.9c1,0,1.9,0.9,1.9,1.9S707.9,16,706.8,16z
		 M707.8,14.1c0-0.5-0.4-1-1-1c-0.5,0-1,0.4-1,1c0,0.5,0.5,1,1,1C707.4,15,707.8,14.6,707.8,14.1z M729.1,14.1
		c0,0.8-0.7,1.5-1.5,1.5s-1.4-0.7-1.4-1.5s0.7-1.5,1.5-1.5C728.4,12.6,729.1,13.3,729.1,14.1z M727.6,13.6c-0.3,0-0.5,0.2-0.5,0.5
		s0.2,0.5,0.5,0.5s0.5-0.2,0.5-0.5S727.9,13.6,727.6,13.6z"/>
</g>
<g>
	<g class="st15">
		<g>
			<path class="st11" d="M47.1,223.1l-2.4-10h2.1l1.5,6.9l1.8-6.9h2.4l1.8,7l1.5-7h2l-2.4,10h-2.1l-2-7.5l-2,7.5H47.1z"/>
		</g>
		<g>
			<path class="st11" d="M59.8,218.1l-1.7-0.3c0.2-0.7,0.5-1.2,1-1.6s1.2-0.5,2.1-0.5c0.9,0,1.5,0.1,1.9,0.3s0.7,0.5,0.9,0.8
				c0.2,0.3,0.3,0.9,0.3,1.7v2.2c0,0.6,0,1.1,0.1,1.4c0.1,0.3,0.2,0.6,0.3,1h-1.9c-0.1-0.1-0.1-0.3-0.2-0.6c0-0.1-0.1-0.2-0.1-0.2
				c-0.3,0.3-0.7,0.6-1.1,0.7s-0.8,0.2-1.2,0.2c-0.7,0-1.3-0.2-1.8-0.6s-0.6-0.9-0.6-1.5c0-0.4,0.1-0.8,0.3-1.1s0.5-0.6,0.8-0.7
				c0.4-0.2,0.9-0.3,1.5-0.4c0.9-0.2,1.5-0.3,1.9-0.5v-0.2c0-0.4-0.1-0.6-0.3-0.8s-0.5-0.2-1-0.2c-0.3,0-0.6,0.1-0.8,0.2
				C60,217.5,59.9,217.8,59.8,218.1z M62.3,219.7c-0.2,0.1-0.6,0.2-1.2,0.3s-0.9,0.2-1,0.3c-0.3,0.2-0.4,0.4-0.4,0.7
				s0.1,0.5,0.3,0.7s0.5,0.3,0.8,0.3s0.7-0.1,1-0.3c0.2-0.2,0.4-0.4,0.5-0.6c0.1-0.2,0.1-0.5,0.1-0.9L62.3,219.7L62.3,219.7z"/>
		</g>
		<g>
			<path class="st11" d="M66.1,223.1v-10H68v10H66.1z"/>
		</g>
		<g>
			<path class="st11" d="M69.9,223.1v-10h1.9v5.3l2.2-2.6h2.4l-2.5,2.7l2.7,4.6h-2.1l-1.8-3.3l-0.9,0.9v2.3h-1.9
				C69.9,223,69.9,223.1,69.9,223.1z"/>
		</g>
		<g>
			<path class="st11" d="M79.1,223.1l-2.3-7.3h1.9l1.4,4.8l1.3-4.8h1.9l1.2,4.8l1.4-4.8h1.9l-2.3,7.3h-1.8l-1.3-4.7l-1.2,4.7H79.1z"
				/>
		</g>
		<g>
			<path class="st11" d="M90.1,218.1l-1.7-0.3c0.2-0.7,0.5-1.2,1-1.6s1.2-0.5,2.1-0.5s1.5,0.1,1.9,0.3s0.7,0.5,0.9,0.8
				c0.2,0.3,0.3,0.9,0.3,1.7v2.2c0,0.6,0,1.1,0.1,1.4c0.1,0.3,0.2,0.6,0.3,1h-1.9c-0.1-0.1-0.1-0.3-0.2-0.6c0-0.1-0.1-0.2-0.1-0.2
				c-0.3,0.3-0.7,0.6-1.1,0.7s-0.8,0.2-1.2,0.2c-0.7,0-1.3-0.2-1.8-0.6s-0.6-0.9-0.6-1.5c0-0.4,0.1-0.8,0.3-1.1
				c0.2-0.3,0.5-0.6,0.8-0.7c0.4-0.2,0.9-0.3,1.5-0.4c0.9-0.2,1.5-0.3,1.9-0.5v-0.2c0-0.4-0.1-0.6-0.3-0.8c-0.2-0.2-0.5-0.2-1-0.2
				c-0.3,0-0.6,0.1-0.8,0.2C90.4,217.5,90.2,217.8,90.1,218.1z M92.7,219.7c-0.2,0.1-0.6,0.2-1.2,0.3s-0.9,0.2-1,0.3
				c-0.3,0.2-0.4,0.4-0.4,0.7s0.1,0.5,0.3,0.7s0.5,0.3,0.8,0.3s0.7-0.1,1-0.3c0.2-0.2,0.4-0.4,0.5-0.6c0.1-0.2,0.1-0.5,0.1-0.9v-0.5
				H92.7z"/>
		</g>
		<g>
			<path class="st11" d="M95.6,215.9h2l1.7,5.2l1.7-5.2h2l-2.6,7l-0.5,1.3c-0.2,0.4-0.3,0.7-0.5,1s-0.3,0.4-0.5,0.5
				s-0.4,0.2-0.7,0.3s-0.6,0.1-1,0.1s-0.7,0-1.1-0.1l-0.2-1.5c0.3,0.1,0.6,0.1,0.8,0.1c0.4,0,0.8-0.1,1-0.4c0.2-0.3,0.4-0.6,0.5-1
				L95.6,215.9z"/>
		</g>
	</g>
	<g>
		<path class="st11" d="M147.4,225.9c-0.6,0-1-0.4-1-1v-8.8c0-8.5-6.9-15.4-15.4-15.4H17.9c-8.5,0-15.4,6.9-15.4,15.4v8.8
			c0,0.6-0.4,1-1,1s-1-0.4-1-1v-8.8c0-9.6,7.8-17.4,17.4-17.4H131c9.6,0,17.4,7.8,17.4,17.4v8.8C148.4,225.5,148,225.9,147.4,225.9z
			"/>
	</g>
	<g>
		<g>
			<path class="st11" d="M95.4,199.5c-3.9,0-6.9-1.7-6.9-4s3-4,6.9-4s6.9,1.7,6.9,4S99.3,199.5,95.4,199.5z M95.4,193.5
				c-3,0-4.9,1.2-4.9,2s1.9,2,4.9,2s4.9-1.2,4.9-2S98.4,193.5,95.4,193.5z"/>
		</g>
		<g>
			<path class="st11" d="M120.4,108.8c-2.3,0-4.3-1.1-4.9-2.9c-0.8-2.5,1.1-5.3,4.3-6.4l0,0c1.5-0.5,3-0.5,4.4-0.1
				c1.4,0.5,2.5,1.4,2.9,2.6s0.2,2.6-0.7,3.9c-0.8,1.1-2.1,2-3.6,2.5C122,108.6,121.2,108.8,120.4,108.8z M120.4,101.3
				c-2.1,0.7-3.5,2.5-3,3.9s2.6,2,4.7,1.3c1.1-0.4,2-1,2.6-1.8c0.5-0.7,0.7-1.4,0.5-2.1c-0.2-0.6-0.8-1.1-1.6-1.4
				C122.7,100.9,121.5,101,120.4,101.3L120.4,101.3z"/>
		</g>
		<g>
			<path class="st11" d="M28.1,108.7c-0.8,0-1.6-0.1-2.4-0.4c-1.5-0.5-2.8-1.4-3.6-2.5c-0.9-1.2-1.1-2.6-0.7-3.9
				c0.4-1.2,1.4-2.2,2.9-2.6c1.3-0.4,2.9-0.4,4.4,0.1c3.2,1.1,5.1,3.9,4.3,6.4C32.4,107.6,30.4,108.7,28.1,108.7z M26.2,101
				c-0.5,0-0.9,0.1-1.3,0.2c-0.8,0.3-1.4,0.7-1.6,1.4l0,0c-0.2,0.6,0,1.4,0.5,2.1c0.6,0.8,1.5,1.4,2.6,1.8c2.1,0.7,4.3,0.1,4.7-1.3
				c0.5-1.4-0.9-3.2-3-3.9C27.4,101.1,26.8,101,26.2,101z M22.4,102.3L22.4,102.3L22.4,102.3z"/>
		</g>
		<g>
			<path class="st11" d="M53.7,199.5c-3.9,0-6.9-1.7-6.9-4s3-4,6.9-4s6.9,1.7,6.9,4S57.6,199.5,53.7,199.5z M53.7,193.5
				c-3,0-4.9,1.2-4.9,2s1.9,2,4.9,2s4.9-1.2,4.9-2S56.7,193.5,53.7,193.5z"/>
		</g>
		<g>
			<path class="st11" d="M74.2,87.7c-10,0-18.1-8.1-18.1-18.1s8.1-18.1,18.1-18.1s18.1,8.1,18.1,18.1S84.2,87.7,74.2,87.7z
				 M74.2,53.5c-8.9,0-16.1,7.2-16.1,16.1s7.2,16.1,16.1,16.1s16.1-7.2,16.1-16.1S83.1,53.5,74.2,53.5z"/>
		</g>
		<g>
			<path class="st11" d="M74.2,137.7c-0.6,0-1-0.4-1-1V86.6c0-0.6,0.4-1,1-1s1,0.4,1,1v50.1C75.2,137.3,74.8,137.7,74.2,137.7z"/>
		</g>
		<g>
			<path class="st11" d="M59.3,195.6c-0.1,0-0.2,0-0.2,0c-0.5-0.1-0.9-0.7-0.7-1.2l14.9-57.9c0.1-0.5,0.7-0.9,1.2-0.7
				c0.5,0.1,0.9,0.7,0.7,1.2l-14.9,57.9C60.2,195.3,59.7,195.6,59.3,195.6z"/>
		</g>
		<g>
			<path class="st11" d="M89.6,195.6c-0.4,0-0.8-0.3-1-0.7L73.2,137c-0.1-0.5,0.2-1.1,0.7-1.2c0.5-0.1,1.1,0.2,1.2,0.7l15.4,57.9
				c0.1,0.5-0.2,1.1-0.7,1.2C89.8,195.6,89.7,195.6,89.6,195.6z"/>
		</g>
		<g>
			<path class="st11" d="M94,117c-0.3,0-0.5-0.1-0.7-0.3L73.5,95.9c-0.4-0.4-0.4-1,0-1.4s1-0.4,1.4,0l19.3,20.3l22.1-9.8
				c0.5-0.2,1.1,0,1.3,0.5c0.2,0.5,0,1.1-0.5,1.3l-22.7,10.1C94.3,117,94.1,117,94,117z"/>
		</g>
		<g>
			<path class="st11" d="M54.6,117c-0.1,0-0.3,0-0.4-0.1l-22.7-10.1c-0.5-0.2-0.7-0.8-0.5-1.3s0.8-0.7,1.3-0.5l22.1,9.8l19.4-20.3
				c0.4-0.4,1-0.4,1.4,0s0.4,1,0,1.4l-19.9,20.8C55.1,116.9,54.9,117,54.6,117z"/>
		</g>
	</g>
</g>
<g>
	<rect x="517.1" y="61.2" class="st16" width="6.7" height="9.2"/>
	<rect x="558.2" y="61.2" class="st16" width="6.7" height="9.2"/>
	<rect x="537.6" y="61.2" class="st16" width="6.7" height="9.2"/>
	<line class="st16" x1="523.8" y1="62.7" x2="537.6" y2="62.7"/>
	<line class="st16" x1="544.4" y1="62.7" x2="558.2" y2="62.7"/>
	<line class="st16" x1="523.8" y1="69" x2="537.6" y2="69"/>
	<line class="st16" x1="544.4" y1="69" x2="558.2" y2="69"/>
	<rect x="529.9" y="69" class="st16" width="1.9" height="5.9"/>
	<rect x="521.7" y="74.9" class="st16" width="38.5" height="2.4"/>
	<rect x="550.3" y="69" class="st16" width="1.9" height="5.9"/>
	<g>
		<rect x="517.1" y="71" class="st16" width="2.8" height="12.7"/>
		<rect x="517.7" y="83.7" class="st16" width="1.6" height="1.5"/>
		<line class="st16" x1="518.5" y1="85.2" x2="518.5" y2="86.3"/>
	</g>
	<g>
		<rect x="562" y="71" class="st16" width="2.9" height="12.7"/>
		<rect x="562.7" y="83.7" class="st16" width="1.6" height="1.5"/>
		<line class="st16" x1="563.5" y1="85.2" x2="563.5" y2="86.3"/>
	</g>
</g>
<g>
	<g>
		<g>
			<rect x="521.5" y="122.8" class="st17" width="40.1" height="37.2"/>
		</g>
	</g>
	<g>
		<path class="st13" d="M550.5,132.6c0,0.7,0,1.3,0,2c0,0.1,0,0.2,0,0.4c0,0.5-0.3,0.9-0.9,0.9c-0.6,0-1.1,0-1.7,0
			c-0.6,0-0.9-0.3-0.9-0.9c0-0.6,0-1.3,0-1.9c0-0.1,0-0.2,0-0.3c-3.2,0-6.3,0-9.5,0c0,0.1,0,0.2,0,0.3c0,0.6,0,1.2,0,1.8
			c0,0.7-0.3,1-1,1c-0.5,0-1.1,0-1.6,0c-0.6,0-0.9-0.3-0.9-0.9c0-0.6,0-1.2,0-1.8c0-0.1,0-0.2,0-0.3c-0.1,0-0.3,0-0.4,0
			c-2.6,0-5.2,0-7.7,0c-0.8,0-1-0.3-1-1c0-0.8,0-1.7,0-2.5c0-0.7,0.3-1,1-1c9.6,0,19.2,0,28.9,0c1.3,0,2.6,0,3.9,0
			c0.9,0,1.1,0.2,1.1,1.1c0,0.8,0,1.7,0,2.5c0,0.6-0.3,0.9-0.9,0.9c-2.6,0-5.3,0-7.9,0C550.7,132.6,550.6,132.6,550.5,132.6z"/>
		<path class="st13" d="M534.7,152.8c0-1,0-1.9,0-2.8c-0.3,0-0.5-0.1-0.8-0.1c-1.5-0.3-2.5-1.4-2.6-3c0-0.3,0-0.6-0.1-0.9
			c0-0.3,0.1-0.5,0.4-0.5c1.5-0.1,3.5,0.4,4.1,2.4c0,0,0,0.1,0.1,0.2c0.8-0.8,1.8-1,2.8-1c0.6,0,0.7,0.1,0.7,0.7
			c0,0.3-0.1,0.7-0.1,1c-0.3,1.4-1.2,2.2-2.7,2.4c-0.2,0-0.3,0.1-0.3,0.3c0,0.5,0,0.9,0,1.4c4,0,7.9,0,11.9,0c0-0.9,0-1.8,0-2.8
			c-0.2,0-0.4-0.1-0.7-0.1c-1.6-0.3-2.5-1.4-2.7-3c0-0.3-0.1-0.6-0.1-0.9c0-0.3,0.1-0.5,0.4-0.5c1.6-0.1,3.5,0.4,4.1,2.4v0.1h0.1
			c0.8-0.8,1.9-1,3-1c0.3,0,0.5,0.2,0.5,0.5c0,0.4,0,0.9-0.2,1.3c-0.3,1.4-1.3,2.1-2.7,2.2c-0.2,0-0.3,0.1-0.3,0.3
			c0,0.4,0,0.9,0,1.4c0.1,0,0.2,0,0.3,0c2,0,4,0,6,0c0.5,0,0.7,0.2,0.8,0.6c0.1,0.3,0,0.6,0,0.9c-0.1,0.4-0.3,0.6-0.8,0.6
			c-9.4,0-18.8,0-28.2,0c-0.4,0-0.7-0.2-0.8-0.6c-0.1-0.3-0.1-0.6,0-0.9c0.1-0.5,0.3-0.6,0.8-0.6c2.1,0,4.2,0,6.4,0
			C534.4,152.8,534.5,152.8,534.7,152.8z"/>
		<path class="st13" d="M548.7,143.9c-1.8,0-3-1.5-2.5-3.3c0.3-1.2,0.9-2.2,1.9-3.1c0.4-0.3,0.9-0.4,1.3,0c1.1,0.9,1.8,2.1,2,3.5
			C551.5,142.6,550.4,143.8,548.7,143.9z M548.7,138.8c-0.6,0.7-1.1,1.4-1.2,2.3c-0.1,0.5,0.1,0.9,0.5,1.1c0.5,0.3,1,0.3,1.5,0
			c0.4-0.2,0.6-0.7,0.5-1.1C549.8,140.2,549.4,139.5,548.7,138.8z"/>
		<path class="st13" d="M535.7,143.9c-1.8,0-3-1.5-2.5-3.3c0.3-1.2,0.9-2.2,1.9-3c0.4-0.3,0.9-0.4,1.2-0.1c1.1,1,1.9,2.1,2,3.6
			C538.5,142.7,537.3,143.9,535.7,143.9z M535.7,138.8c-0.7,0.7-1.2,1.5-1.3,2.5c-0.1,0.7,0.5,1.3,1.3,1.2c0.8,0,1.3-0.6,1.2-1.3
			C536.8,140.2,536.4,139.5,535.7,138.8z"/>
	</g>
</g>
</svg>
