<?xml version="1.0" encoding="utf-8"?>
<!-- Generator: Adobe Illustrator 22.1.0, SVG Export Plug-In . SVG Version: 6.00 Build 0)  -->
<svg version="1.1" id="Layer_1" xmlns="http://www.w3.org/2000/svg" xmlns:xlink="http://www.w3.org/1999/xlink" x="0px" y="0px"
	 viewBox="0 0 663.5 308.9" style="enable-background:new 0 0 663.5 308.9;" xml:space="preserve">
<style type="text/css">
	.st0{fill:#488949;stroke:#488949;stroke-width:3;stroke-linecap:round;stroke-linejoin:round;stroke-miterlimit:10;}
	.st1{fill:#FFFFFF;}
	.st2{fill:#404040;}
	.st3{fill:#488949;}
	.st4{fill:#FFFFFF;stroke:#282828;stroke-width:0.5;stroke-miterlimit:10;}
	.st5{fill:#D8D8D8;}
	.st6{fill:#E21313;}
	.st7{fill:#E5E5E5;}
	.st8{fill:#D3D3D3;}
	.st9{fill:#F9F9F9;}
	.st10{fill:#404040;stroke:#404040;stroke-width:3;stroke-linecap:round;stroke-linejoin:round;stroke-miterlimit:10;}
	.st11{fill:none;}
</style>
<g>
	<rect x="337.7" y="145.3" class="st0" width="25" height="23.2"/>
	<g>
		<path class="st1" d="M350.1,166.8c-5.5,0-10-4.5-10-10s4.5-10,10-10s10,4.5,10,10C360.2,162.3,355.7,166.8,350.1,166.8z
			 M350.1,166c-2.7-4.6-5.4-9.2-8-13.8c-2.1,3.6-1.5,8.8,2.5,11.9c3.8,2.9,9.4,2.4,12.5-1.3c3-3.5,2.6-8.1,1.1-10.5
			C355.5,156.9,352.9,161.4,350.1,166z M356.9,153c-4.5,0-8.9,0-13.4,0c2.3,3.8,4.5,7.7,6.8,11.5C352.4,160.6,354.7,156.9,356.9,153
			z M358.2,152.3c-1.3-2.5-4.4-4.8-8.3-4.7c-1.6,0.1-3.1,0.5-4.4,1.3c-1.4,0.8-2.5,1.9-3.3,3.4C347.5,152.3,352.9,152.3,358.2,152.3
			z"/>
		<path class="st1" d="M351.4,155.3c-0.1,0.4-0.1,0.9-0.2,1.4c-0.1,1-0.3,1.9-0.4,2.9c0,0.2-0.1,0.3-0.1,0.5
			c-0.1,0.3-0.3,0.5-0.5,0.5s-0.5-0.2-0.6-0.5s-0.1-0.5-0.1-0.7c-0.2-1.2-0.3-2.3-0.4-3.5c-0.1-0.3-0.1-0.5-0.1-0.7
			c0.1-0.6,0.6-1,1.1-1C350.9,154.2,351.4,154.7,351.4,155.3z"/>
		<path class="st1" d="M351,162.1c0,0.4-0.4,0.8-0.8,0.8s-0.8-0.4-0.8-0.8c0-0.4,0.4-0.8,0.8-0.8C350.7,161.3,351,161.7,351,162.1z"
			/>
	</g>
</g>
<rect x="42.5" class="st2" width="578.5" height="5.7"/>
<rect x="44.5" y="228.7" class="st2" width="574.5" height="5.7"/>
<rect x="42.5" y="0.6" class="st2" width="5.7" height="233.7"/>
<rect x="615.3" class="st2" width="5.7" height="234.4"/>
<rect x="42.5" y="109.8" class="st2" width="578.5" height="5.7"/>
<rect x="328.9" class="st2" width="5.7" height="234.2"/>
<circle class="st3" cx="96.5" cy="23.4" r="13.7"/>
<g>
	<rect x="115.4" y="19.8" class="st3" width="17.1" height="7.2"/>
	<polygon class="st3" points="141.2,23.4 132.5,32.1 132.5,14.7 	"/>
</g>
<circle class="st3" cx="538.6" cy="23.4" r="13.7"/>
<g>
	<rect x="557.5" y="19.8" class="st3" width="17.1" height="7.2"/>
	<polygon class="st3" points="583.3,23.4 574.6,32.1 574.6,14.7 	"/>
</g>
<circle class="st3" cx="95.9" cy="211" r="13.7"/>
<g>
	<rect x="114.8" y="207.4" class="st3" width="17.1" height="7.2"/>
	<polygon class="st3" points="140.6,211 131.9,219.7 131.9,202.3 	"/>
</g>
<circle class="st3" cx="538.6" cy="211" r="13.7"/>
<g>
	<rect x="557.5" y="207.4" class="st3" width="17.1" height="7.2"/>
	<polygon class="st3" points="583.3,211 574.6,219.7 574.6,202.3 	"/>
</g>
<g>
	<rect x="593.5" y="234.4" class="st3" width="13.3" height="42.5"/>
	<circle class="st4" cx="600.2" cy="241" r="3"/>
	<g>
		<g>
			<rect x="587.8" y="246.9" class="st5" width="24.9" height="24.9"/>
		</g>
		<path class="st3" d="M594.4,262.6c0,3.4,2.7,6,6,6c3.4,0,6-2.7,6-6c0-1.9-0.8-3.6-2.3-4.7v-3.6c0-2.1-1.7-3.8-3.8-3.8
			s-3.8,1.7-3.8,3.8v3.6C595.3,259,594.4,260.7,594.4,262.6z M602.6,257.1c-0.7-0.3-1.5-0.5-2.3-0.5c-0.8,0-1.6,0.2-2.3,0.5v-2.7
			c0-1.2,1-2.3,2.3-2.3c1.2,0,2.3,1,2.3,2.3V257.1z M595.9,262.6c0-2.5,2-4.5,4.5-4.5s4.5,2,4.5,4.5c0,2.5-2,4.5-4.5,4.5
			S595.9,265.1,595.9,262.6z M600.4,261.1c0.8,0,1.5,0.7,1.5,1.5c0,0.8-0.7,1.5-1.5,1.5s-1.5-0.7-1.5-1.5S599.6,261.1,600.4,261.1z"
			/>
	</g>
</g>
<rect x="300.1" y="83.2" class="st3" width="64.6" height="56.6"/>
<rect x="303.4" y="33.3" class="st6" width="56.7" height="33.6"/>
<g>
	<g>
		<rect x="300.6" y="145.4" class="st0" width="25" height="23.2"/>
	</g>
	<g>
		<path class="st1" d="M315.8,166.7c-1.8,0-3.6,0-5.4,0c-0.2-0.1-0.4-0.1-0.5-0.2c-0.8-0.4-1.2-1-1.2-1.9c0-4.5,0-9.1,0-13.6
			c0-0.1,0-0.1,0-0.2c0-1.1,0.9-1.9,1.9-1.9c0.2,0,0.3,0,0.5,0c0-0.2,0-0.3,0-0.5c0-0.5,0.3-0.9,0.8-1.1c0.1,0,0.1-0.1,0.2-0.1
			c0.7,0,1.4,0,2,0l0,0c0.6,0.2,0.9,0.6,1,1.3c0,0.1,0,0.2,0,0.3c0.2,0,0.3,0,0.4,0c0.3,0.1,0.6,0.1,0.9,0.2c0.8,0.4,1.2,1,1.2,1.9
			c0,4.5,0,9,0,13.5c0,0.1,0,0.1,0,0.2c0,0.5-0.2,1-0.6,1.4C316.6,166.4,316.2,166.6,315.8,166.7z M315.9,161.8c0-0.9,0-1.8,0-2.7
			c0-0.4-0.3-0.6-0.7-0.4c-1.6,0.8-3.1,1.6-4.7,2.3c-0.2,0.1-0.3,0.3-0.3,0.5c0,1,0,2,0,3c0,0.4,0.1,0.5,0.5,0.5c1.5,0,3.1,0,4.6,0
			c0.4,0,0.5-0.1,0.5-0.6C315.9,163.6,315.9,162.7,315.9,161.8z"/>
	</g>
</g>
<g>
	<rect x="621" y="14.2" class="st7" width="42.5" height="18.3"/>
	<g>
		<rect x="621" y="22.9" class="st2" width="7.5" height="1"/>
		<rect x="632.6" y="22.9" class="st2" width="7.5" height="1"/>
		<rect x="644.3" y="22.9" class="st2" width="7.5" height="1"/>
		<rect x="655.9" y="22.9" class="st2" width="7.5" height="1"/>
	</g>
</g>
<g>
	<rect x="621" y="201.8" class="st7" width="42.5" height="18.3"/>
	<g>
		<rect x="621" y="210.5" class="st2" width="7.5" height="1"/>
		<rect x="632.6" y="210.5" class="st2" width="7.5" height="1"/>
		<rect x="644.3" y="210.5" class="st2" width="7.5" height="1"/>
		<rect x="655.9" y="210.5" class="st2" width="7.5" height="1"/>
	</g>
</g>
<g>
	<rect y="14.2" class="st7" width="42.5" height="18.3"/>
	<g>
		<rect y="22.9" class="st2" width="7.5" height="1"/>
		<rect x="11.6" y="22.9" class="st2" width="7.5" height="1"/>
		<rect x="23.3" y="22.9" class="st2" width="7.5" height="1"/>
		<rect x="34.9" y="22.9" class="st2" width="7.5" height="1"/>
	</g>
</g>
<g>
	<rect x="86.3" y="234.5" class="st7" width="18.3" height="42.5"/>
	<g>
		<rect x="95" y="234.5" class="st2" width="1" height="7.5"/>
		<rect x="95" y="246.1" class="st2" width="1" height="7.5"/>
		<rect x="95.1" y="257.8" class="st2" width="1" height="7.5"/>
		<rect x="95" y="269.4" class="st2" width="1" height="7.5"/>
	</g>
</g>
<g>
	<rect x="529.3" y="234.5" class="st7" width="18.3" height="42.5"/>
	<g>
		<rect x="538" y="234.5" class="st2" width="1" height="7.5"/>
		<rect x="538" y="246.1" class="st2" width="1" height="7.5"/>
		<rect x="538.1" y="257.8" class="st2" width="1" height="7.5"/>
		<rect x="538" y="269.4" class="st2" width="1" height="7.5"/>
	</g>
</g>
<g>
	<rect y="201.8" class="st7" width="42.5" height="18.3"/>
	<g>
		<rect y="210.5" class="st2" width="7.5" height="1"/>
		<rect x="11.6" y="210.5" class="st2" width="7.5" height="1"/>
		<rect x="23.3" y="210.5" class="st2" width="7.5" height="1"/>
		<rect x="34.9" y="210.5" class="st2" width="7.5" height="1"/>
	</g>
</g>
<ellipse class="st6" cx="472.7" cy="254.9" rx="14.9" ry="14.9"/>
<circle class="st3" cx="435.4" cy="254.9" r="14.9"/>
<g>
	<path class="st1" d="M431.6,260.6v-12.4h2.5v10.3h6.3v2.1H431.6z"/>
</g>
<g>
	<path class="st1" d="M468,261.1v-12.5h5.3c1.3,0,2.3,0.1,2.9,0.3s1.1,0.6,1.5,1.2c0.4,0.6,0.5,1.2,0.5,2c0,0.9-0.3,1.7-0.8,2.3
		c-0.6,0.6-1.4,1-2.5,1.2c0.5,0.3,1,0.7,1.4,1c0.4,0.4,0.8,1.1,1.4,2l1.5,2.4h-3l-1.8-2.7c-0.6-1-1.1-1.6-1.3-1.8
		c-0.2-0.3-0.5-0.4-0.8-0.5s-0.7-0.1-1.3-0.1h-0.5v5.2H468z M470.5,253.9h1.9c1.2,0,2-0.1,2.3-0.2c0.3-0.1,0.5-0.3,0.7-0.5
		c0.2-0.3,0.3-0.6,0.3-0.9c0-0.4-0.1-0.8-0.3-1c-0.2-0.3-0.5-0.4-1-0.5c-0.2,0-0.8,0-1.8,0h-2v3.1L470.5,253.9L470.5,253.9z"/>
</g>
<g>
	<path d="M409.9,287.8l1.7,0.5c-0.3,0.9-0.7,1.6-1.3,2.1s-1.4,0.7-2.3,0.7c-1.1,0-2.1-0.4-2.8-1.2s-1.1-1.8-1.1-3.2
		c0-1.4,0.4-2.5,1.1-3.3s1.7-1.2,2.9-1.2c1.1,0,1.9,0.3,2.6,0.9c0.4,0.4,0.7,0.9,0.9,1.6l-1.7,0.4c-0.1-0.4-0.3-0.8-0.6-1.1
		s-0.7-0.4-1.2-0.4c-0.6,0-1.2,0.2-1.5,0.7s-0.6,1.2-0.6,2.2c0,1.1,0.2,1.9,0.6,2.3s0.9,0.7,1.5,0.7c0.5,0,0.9-0.1,1.2-0.4
		S409.8,288.5,409.9,287.8z"/>
	<path d="M414.3,286.7l-1.5-0.3c0.2-0.6,0.5-1,0.9-1.3s1-0.4,1.8-0.4c0.7,0,1.3,0.1,1.6,0.3s0.6,0.4,0.8,0.7s0.2,0.8,0.2,1.5v1.9
		c0,0.5,0,1,0.1,1.2s0.2,0.5,0.3,0.8h-1.6c0-0.1-0.1-0.3-0.2-0.5c0-0.1,0-0.2-0.1-0.2c-0.3,0.3-0.6,0.5-0.9,0.6s-0.7,0.2-1,0.2
		c-0.6,0-1.1-0.2-1.5-0.5s-0.6-0.8-0.6-1.3c0-0.4,0.1-0.7,0.3-0.9s0.4-0.5,0.7-0.6s0.7-0.3,1.3-0.4c0.8-0.1,1.3-0.3,1.6-0.4v-0.2
		c0-0.3-0.1-0.5-0.2-0.7s-0.5-0.2-0.9-0.2c-0.3,0-0.5,0.1-0.7,0.2S414.4,286.4,414.3,286.7z M416.5,288c-0.2,0.1-0.5,0.2-1,0.3
		s-0.8,0.2-0.9,0.3c-0.2,0.2-0.3,0.3-0.3,0.6c0,0.2,0.1,0.4,0.3,0.6s0.4,0.3,0.7,0.3c0.3,0,0.6-0.1,0.8-0.3c0.2-0.1,0.3-0.3,0.4-0.5
		c0-0.1,0.1-0.4,0.1-0.8V288H416.5z"/>
	<path d="M421.3,291h-1.6v-6.2h1.5v0.9c0.3-0.4,0.5-0.7,0.7-0.8s0.4-0.2,0.7-0.2c0.4,0,0.7,0.1,1.1,0.3l-0.5,1.4
		c-0.3-0.2-0.5-0.3-0.8-0.3c-0.2,0-0.4,0.1-0.6,0.2s-0.3,0.4-0.4,0.7s-0.1,1-0.1,2.1L421.3,291L421.3,291z"/>
	<path d="M426,291h-1.6v-6.2h1.5v0.9c0.3-0.4,0.5-0.7,0.7-0.8s0.4-0.2,0.7-0.2c0.4,0,0.7,0.1,1.1,0.3l-0.5,1.4
		c-0.3-0.2-0.5-0.3-0.8-0.3c-0.2,0-0.4,0.1-0.6,0.2s-0.3,0.4-0.4,0.7s-0.1,1-0.1,2.1L426,291L426,291z"/>
	<path d="M429.1,283.9v-1.5h1.6v1.5H429.1z M429.1,291v-6.2h1.6v6.2H429.1z"/>
	<path d="M436,289l1.6,0.3c-0.2,0.6-0.5,1.1-1,1.4s-1,0.5-1.7,0.5c-1.1,0-1.9-0.4-2.4-1.1c-0.4-0.6-0.6-1.3-0.6-2.1
		c0-1,0.3-1.8,0.8-2.4s1.2-0.9,2-0.9c0.9,0,1.7,0.3,2.2,0.9s0.8,1.5,0.8,2.8h-4.1c0,0.5,0.1,0.9,0.4,1.1s0.6,0.4,0.9,0.4
		s0.5-0.1,0.7-0.2S435.9,289.3,436,289z M436.1,287.4c0-0.5-0.1-0.8-0.4-1.1s-0.5-0.4-0.9-0.4s-0.7,0.1-0.9,0.4s-0.3,0.6-0.3,1.1
		H436.1z"/>
	<path d="M440.7,291H439v-6.2h1.5v0.9c0.3-0.4,0.5-0.7,0.7-0.8s0.4-0.2,0.7-0.2c0.4,0,0.7,0.1,1.1,0.3l-0.5,1.4
		c-0.3-0.2-0.5-0.3-0.8-0.3c-0.2,0-0.4,0.1-0.6,0.2s-0.3,0.4-0.4,0.7s-0.1,1-0.1,2.1L440.7,291L440.7,291z"/>
	<path d="M454.4,291h-1.9l-0.8-2h-3.4l-0.7,2h-1.8l3.3-8.6h1.8L454.4,291z M451.2,287.6l-1.2-3.2l-1.2,3.2H451.2z"/>
	<path d="M455.3,291v-8.6h1.6v8.6H455.3z"/>
	<path d="M458.7,283.9v-1.5h1.6v1.5H458.7z M458.7,291v-6.2h1.6v6.2H458.7z"/>
	<path d="M461.8,291.4l1.9,0.2c0,0.2,0.1,0.4,0.2,0.5c0.2,0.1,0.4,0.2,0.7,0.2c0.4,0,0.8-0.1,1-0.2c0.1-0.1,0.3-0.2,0.3-0.4
		c0.1-0.1,0.1-0.4,0.1-0.8V290c-0.5,0.7-1.1,1-1.9,1s-1.5-0.4-2-1.1c-0.4-0.6-0.6-1.3-0.6-2.1c0-1,0.3-1.8,0.8-2.4s1.1-0.8,1.9-0.8
		s1.4,0.3,1.9,1v-0.9h1.5v5.6c0,0.7-0.1,1.3-0.2,1.6s-0.3,0.6-0.5,0.9s-0.5,0.4-0.9,0.5s-0.8,0.2-1.4,0.2c-1.1,0-1.8-0.2-2.2-0.5
		s-0.7-0.8-0.7-1.4C461.8,291.6,461.8,291.5,461.8,291.4z M463.3,287.8c0,0.7,0.1,1.1,0.4,1.5s0.6,0.5,0.9,0.5c0.4,0,0.7-0.2,1-0.5
		s0.4-0.8,0.4-1.4s-0.1-1.1-0.4-1.4s-0.6-0.5-1-0.5s-0.7,0.2-1,0.5S463.3,287.1,463.3,287.8z"/>
	<path d="M475,291h-1.6v-3.2c0-0.7,0-1.1-0.1-1.3s-0.2-0.4-0.3-0.5s-0.3-0.2-0.6-0.2c-0.3,0-0.5,0.1-0.8,0.2s-0.4,0.4-0.5,0.6
		s-0.1,0.7-0.1,1.4v2.8h-1.6v-6.2h1.5v0.9c0.5-0.7,1.2-1.1,2.1-1.1c0.4,0,0.7,0.1,1,0.2s0.5,0.3,0.7,0.5s0.3,0.4,0.3,0.7
		s0.1,0.6,0.1,1.1v4.1H475z"/>
	<path d="M476.5,284.8h1.5v0.8c0.5-0.7,1.2-1,1.9-1c0.4,0,0.7,0.1,1,0.2s0.5,0.4,0.7,0.7c0.3-0.3,0.6-0.6,0.9-0.7s0.7-0.2,1-0.2
		c0.5,0,0.8,0.1,1.2,0.3s0.6,0.5,0.7,0.8s0.2,0.7,0.2,1.3v4H484v-3.6c0-0.6-0.1-1-0.2-1.2c-0.2-0.2-0.4-0.4-0.7-0.4
		c-0.2,0-0.4,0.1-0.7,0.2s-0.3,0.3-0.4,0.6s-0.1,0.7-0.1,1.3v3h-1.6v-3.4c0-0.6,0-1-0.1-1.2s-0.1-0.3-0.3-0.4s-0.3-0.1-0.5-0.1
		c-0.3,0-0.5,0.1-0.7,0.2s-0.3,0.3-0.4,0.6s-0.1,0.7-0.1,1.3v3h-1.6L476.5,284.8L476.5,284.8z"/>
	<path d="M490.9,289l1.6,0.3c-0.2,0.6-0.5,1.1-1,1.4s-1,0.5-1.7,0.5c-1.1,0-1.9-0.4-2.4-1.1c-0.4-0.6-0.6-1.3-0.6-2.1
		c0-1,0.3-1.8,0.8-2.4s1.2-0.9,2-0.9c0.9,0,1.7,0.3,2.2,0.9s0.8,1.5,0.8,2.8h-4.1c0,0.5,0.1,0.9,0.4,1.1s0.6,0.4,0.9,0.4
		s0.5-0.1,0.7-0.2S490.8,289.3,490.9,289z M491,287.4c0-0.5-0.1-0.8-0.4-1.1s-0.5-0.4-0.9-0.4s-0.7,0.1-0.9,0.4s-0.3,0.6-0.3,1.1
		H491z"/>
	<path d="M499.7,291H498v-3.2c0-0.7,0-1.1-0.1-1.3s-0.2-0.4-0.3-0.5s-0.3-0.2-0.6-0.2c-0.3,0-0.5,0.1-0.8,0.2s-0.4,0.4-0.5,0.6
		s-0.1,0.7-0.1,1.4v2.8H494v-6.2h1.5v0.9c0.5-0.7,1.2-1.1,2.1-1.1c0.4,0,0.7,0.1,1,0.2s0.5,0.3,0.7,0.5s0.3,0.4,0.3,0.7
		s0.1,0.6,0.1,1.1V291z"/>
	<path d="M504.2,284.8v1.3H503v2.5c0,0.5,0,0.8,0,0.9s0.1,0.2,0.1,0.2s0.2,0.1,0.3,0.1c0.2,0,0.4-0.1,0.7-0.2l0.1,1.3
		c-0.4,0.2-0.8,0.2-1.3,0.2c-0.3,0-0.6,0-0.8-0.1s-0.4-0.2-0.5-0.4s-0.2-0.4-0.2-0.6s-0.1-0.6-0.1-1.2v-2.7h-0.8v-1.3h0.8v-1.2
		l1.7-1v2.2L504.2,284.8L504.2,284.8z"/>
	<path d="M435.1,302.6l1.7-0.2c0.1,0.6,0.3,1,0.6,1.2s0.7,0.4,1.3,0.4c0.6,0,1-0.1,1.3-0.4s0.4-0.5,0.4-0.8c0-0.2-0.1-0.4-0.2-0.5
		s-0.3-0.3-0.6-0.4c-0.2-0.1-0.7-0.2-1.4-0.4c-0.9-0.2-1.6-0.5-2-0.8c-0.5-0.5-0.8-1-0.8-1.7c0-0.4,0.1-0.8,0.4-1.2s0.6-0.7,1.1-0.9
		s1-0.3,1.7-0.3c1.1,0,1.9,0.2,2.4,0.7s0.8,1.1,0.9,1.9l-1.7,0.1c-0.1-0.4-0.2-0.8-0.5-1s-0.6-0.3-1.1-0.3s-0.9,0.1-1.2,0.3
		c-0.2,0.1-0.3,0.3-0.3,0.5s0.1,0.4,0.3,0.5c0.2,0.2,0.8,0.4,1.6,0.6s1.5,0.4,1.9,0.6s0.7,0.5,0.9,0.9s0.3,0.8,0.3,1.4
		c0,0.5-0.1,1-0.4,1.4s-0.7,0.7-1.2,1s-1.1,0.3-1.9,0.3c-1.1,0-1.9-0.3-2.5-0.8S435.2,303.6,435.1,302.6z"/>
	<path d="M444.7,305.4l-2-6.2h1.6l1.2,4.1l1.1-4.1h1.6l1,4.1l1.2-4.1h1.6l-2,6.2h-1.6l-1.1-4l-1.1,4H444.7z"/>
	<path d="M452.9,298.3v-1.5h1.6v1.5H452.9z M452.9,305.4v-6.2h1.6v6.2H452.9z"/>
	<path d="M459.1,299.2v1.3H458v2.5c0,0.5,0,0.8,0,0.9s0.1,0.2,0.1,0.2s0.2,0.1,0.3,0.1c0.2,0,0.4-0.1,0.7-0.2l0.1,1.3
		c-0.4,0.2-0.8,0.2-1.3,0.2c-0.3,0-0.6,0-0.8-0.1s-0.4-0.2-0.5-0.4s-0.2-0.4-0.2-0.6s-0.1-0.6-0.1-1.2v-2.7h-0.8v-1.3h0.8V298l1.7-1
		v2.2H459.1L459.1,299.2z"/>
	<path d="M465.6,301l-1.6,0.3c-0.1-0.3-0.2-0.6-0.4-0.7s-0.4-0.2-0.8-0.2s-0.7,0.1-1,0.4s-0.4,0.8-0.4,1.4c0,0.7,0.1,1.3,0.4,1.6
		s0.6,0.5,1,0.5c0.3,0,0.6-0.1,0.8-0.3s0.3-0.5,0.4-0.9l1.6,0.3c-0.2,0.7-0.5,1.3-1,1.7s-1.1,0.6-1.9,0.6c-0.9,0-1.6-0.3-2.2-0.9
		s-0.8-1.4-0.8-2.4s0.3-1.8,0.8-2.4s1.3-0.9,2.2-0.9c0.8,0,1.4,0.2,1.8,0.5S465.4,300.3,465.6,301z"/>
	<path d="M468.5,296.8v3.2c0.5-0.6,1.2-0.9,1.9-0.9c0.4,0,0.7,0.1,1,0.2s0.5,0.3,0.7,0.5s0.3,0.5,0.3,0.7s0.1,0.7,0.1,1.2v3.7h-1.6
		v-3.3c0-0.7,0-1.1-0.1-1.2s-0.2-0.3-0.3-0.4s-0.4-0.2-0.6-0.2c-0.3,0-0.5,0.1-0.7,0.2s-0.4,0.3-0.5,0.6s-0.1,0.7-0.1,1.2v3.1H467
		v-8.6L468.5,296.8L468.5,296.8z"/>
</g>
<g>
	<rect x="312.3" y="94.5" class="st1" width="40.4" height="1.2"/>
	<rect x="312.6" y="124.3" class="st1" width="40.1" height="0.8"/>
	<rect x="312.3" y="94.6" class="st1" width="1.2" height="30.5"/>
	<rect x="312.3" y="109.2" class="st1" width="40.4" height="1.2"/>
	<rect x="331.9" y="94.6" class="st1" width="1.2" height="29.8"/>
	<rect x="328.2" y="106" class="st8" width="8.7" height="7.7"/>
	<g>
		<rect x="351.9" y="100.1" class="st9" width="1.2" height="1"/>
		<rect x="353.6" y="100.1" class="st9" width="1.2" height="1"/>
		<rect x="355.4" y="100.1" class="st9" width="1.2" height="1"/>
		<rect x="357.2" y="100.1" class="st9" width="1.2" height="1"/>
	</g>
	<g>
		<rect x="351.9" y="119" class="st9" width="1.3" height="1"/>
		<rect x="353.8" y="119" class="st9" width="1.3" height="1"/>
		<rect x="355.8" y="119" class="st9" width="1.3" height="1"/>
		<rect x="357.7" y="119" class="st9" width="1.3" height="1"/>
	</g>
	<g>
		<rect x="305.5" y="100.1" class="st9" width="1.4" height="1"/>
		<rect x="307.6" y="100.1" class="st9" width="1.4" height="1"/>
		<rect x="309.7" y="100.1" class="st9" width="1.4" height="1"/>
		<rect x="311.9" y="100.1" class="st9" width="1.4" height="1"/>
	</g>
	<g>
		<rect x="318.6" y="124.3" class="st9" width="0.9" height="1.3"/>
		<rect x="318.7" y="126.3" class="st9" width="0.9" height="1.3"/>
		<rect x="318.7" y="128.3" class="st9" width="0.9" height="1.3"/>
		<rect x="318.7" y="130.4" class="st9" width="0.9" height="1.3"/>
	</g>
	<g>
		<rect x="345" y="124.4" class="st9" width="0.9" height="1.3"/>
		<rect x="345" y="126.4" class="st9" width="0.9" height="1.3"/>
		<rect x="345.1" y="128.4" class="st9" width="0.9" height="1.3"/>
		<rect x="345" y="130.4" class="st9" width="0.9" height="1.3"/>
	</g>
	<g>
		<rect x="305.9" y="118.9" class="st9" width="1.3" height="1"/>
		<rect x="307.9" y="118.9" class="st9" width="1.3" height="1"/>
		<rect x="309.9" y="118.9" class="st9" width="1.3" height="1"/>
		<rect x="311.9" y="118.9" class="st9" width="1.3" height="1"/>
	</g>
	<rect x="351.6" y="94.6" class="st1" width="1.2" height="30.5"/>
</g>
<g>
	<path class="st1" d="M344.2,38.2c3,0,6.1,0,9.1,0c0.1,0,0.2,0,0.3,0c0.3,0,0.4,0.2,0.4,0.5s-0.2,0.5-0.4,0.5c-0.1,0-0.2,0-0.2,0
		c-5.6,0-11.2,0-16.8,0c-0.7,0-1.5,0-2.2-0.1c-0.4,0-0.4-0.1-0.4-0.5c0-0.2,0.1-0.3,0.3-0.3c0.3,0,0.6-0.1,0.9-0.1
		C338.1,38.2,341.1,38.2,344.2,38.2L344.2,38.2z"/>
	<path class="st1" d="M344.2,62c-3,0-6.1,0-9.1,0c-0.3,0-0.6-0.1-0.9-0.1s-0.3-0.2-0.3-0.4s0-0.4,0.3-0.4c0.4,0,0.7-0.1,1.1-0.1
		c2.9,0,5.7,0,8.6,0c3.2,0,6.3,0,9.5,0c0.1,0,0.2,0,0.3,0c0.3,0.1,0.4,0.2,0.4,0.5s-0.1,0.4-0.4,0.5c-0.1,0-0.2,0-0.3,0
		C350.3,62,347.2,62,344.2,62L344.2,62z"/>
	<path class="st1" d="M343.3,57.9c0-1.5,0-2.9,0-4.4c0-0.3,0-0.7,0-1c0-0.5,0.2-0.7,0.7-0.7c0.4,0,0.6,0.3,0.6,0.7
		c0,1.7,0,3.5,0,5.2v0.1c0.1,0,0.1-0.1,0.2-0.1c0.4-0.4,0.8-0.8,1.3-1.3c0.3-0.3,0.7-0.3,1-0.1c0.3,0.3,0.3,0.7,0,1
		c-0.8,0.8-1.6,1.6-2.4,2.4c-0.5,0.5-0.8,0.5-1.3,0c-0.8-0.8-1.6-1.6-2.4-2.4c-0.3-0.3-0.3-0.7-0.1-1c0.3-0.3,0.7-0.3,1,0
		c0.4,0.4,0.8,0.8,1.2,1.2C343.2,57.8,343.2,57.9,343.3,57.9z"/>
	<path class="st1" d="M343.3,42.3c-0.3,0.3-0.6,0.6-0.9,0.9c-0.2,0.2-0.4,0.4-0.6,0.6c-0.3,0.2-0.6,0.2-0.9,0
		c-0.3-0.3-0.3-0.6,0-0.9c0.9-0.9,1.8-1.8,2.7-2.7c0.3-0.3,0.6-0.3,0.9,0c0.9,0.9,1.7,1.7,2.6,2.6c0.3,0.3,0.3,0.6,0,0.9
		c-0.3,0.3-0.6,0.3-0.9,0c-0.4-0.4-0.8-0.8-1.2-1.2c-0.1-0.1-0.1-0.1-0.3-0.3c0,0.4,0,0.7,0,1c0,1.4,0,2.8,0,4.1
		c0,0.3-0.1,0.5-0.3,0.6c-0.3,0.1-0.6,0.1-0.7-0.1c-0.1-0.1-0.2-0.4-0.2-0.6c0-1.5,0-3.1,0-4.6C343.3,42.5,343.3,42.4,343.3,42.3
		L343.3,42.3z"/>
</g>
<g>
	<rect x="64.3" y="101.1" class="st0" width="25" height="23.2"/>
</g>
<path class="st1" d="M73.6,111h-4l7.3-8.1l7.3,8.1h-4v8.1h-6.4V111z M80,120.7h-6.4v1.6H80V120.7z"/>
<g>
	<rect x="102.7" y="101.1" class="st10" width="25" height="23.2"/>
</g>
<path class="st1" d="M118.4,114.3h4l-7.2,8.1l-7.3-8.1h4v-8.1h6.4V114.3z M111.9,104.6h6.4V103h-6.4V104.6z"/>
<g>
	<path d="M65.2,142.9v-8.6h3.7c0.9,0,1.6,0.1,2,0.2s0.7,0.4,1,0.8s0.4,0.8,0.4,1.4c0,0.6-0.2,1.2-0.6,1.6s-0.9,0.7-1.7,0.8
		c0.4,0.2,0.7,0.5,0.9,0.7s0.6,0.7,1,1.4l1,1.7h-2.1l-1.3-1.9c-0.4-0.7-0.8-1.1-0.9-1.3s-0.3-0.3-0.5-0.4s-0.5-0.1-0.9-0.1h-0.4v3.6
		H65.2z M66.9,138h1.3c0.8,0,1.4,0,1.6-0.1s0.4-0.2,0.5-0.4s0.2-0.4,0.2-0.6c0-0.3-0.1-0.5-0.2-0.7s-0.4-0.3-0.7-0.3
		c-0.1,0-0.6,0-1.3,0h-1.4V138z"/>
	<path d="M81.6,142.9h-1.9l-0.8-2h-3.4l-0.7,2H73l3.3-8.6h1.8L81.6,142.9z M78.4,139.5l-1.2-3.2l-1.2,3.2H78.4z"/>
	<path d="M88,139.8l1.7,0.5c-0.3,0.9-0.7,1.6-1.3,2.1s-1.4,0.7-2.3,0.7c-1.1,0-2.1-0.4-2.8-1.2s-1.1-1.8-1.1-3.2
		c0-1.4,0.4-2.5,1.1-3.3s1.7-1.2,2.9-1.2c1.1,0,1.9,0.3,2.6,0.9c0.4,0.4,0.7,0.9,0.9,1.6l-1.7,0.4c-0.1-0.4-0.3-0.8-0.6-1.1
		s-0.7-0.4-1.2-0.4c-0.6,0-1.2,0.2-1.5,0.7s-0.6,1.2-0.6,2.2c0,1.1,0.2,1.9,0.6,2.3s0.9,0.7,1.5,0.7c0.5,0,0.9-0.1,1.2-0.4
		S87.9,140.4,88,139.8z"/>
	<path d="M91.2,142.9v-8.6h1.7v3.8l3.5-3.8h2.3l-3.2,3.3l3.4,5.2h-2.2l-2.4-4l-1.4,1.4v2.6H91.2z"/>
	<path d="M103.2,142.9v-8.5h1.7v7.1h4.3v1.4H103.2z"/>
	<path d="M110.4,142.9v-8.6h1.7v8.6H110.4z"/>
	<path d="M113.8,142.9v-8.6h5.9v1.5h-4.2v2h3.6v1.5h-3.6v3.7H113.8z"/>
	<path d="M123.1,142.9v-7.1h-2.5v-1.5h6.8v1.5h-2.5v7.1H123.1z"/>
</g>
<g>
	<rect x="60.4" y="19.8" class="st11" width="17.1" height="7.2"/>
	<polygon class="st11" points="51.7,23.4 60.4,14.7 60.4,32.1 	"/>
</g>
<g>
	<path class="st1" d="M310.4,52.7l2-0.2c0.1,0.5,0.2,0.9,0.5,1.2s0.6,0.4,1,0.4c0.4,0,0.8-0.2,1.1-0.5s0.4-0.8,0.4-1.3
		c0-0.5-0.1-0.9-0.4-1.2s-0.6-0.5-1-0.5c-0.3,0-0.6,0.1-0.9,0.2l0.2-1.7c0.6,0,1-0.1,1.3-0.4c0.3-0.3,0.4-0.6,0.4-1
		c0-0.4-0.1-0.6-0.3-0.9s-0.5-0.3-0.9-0.3c-0.4,0-0.7,0.1-0.9,0.4s-0.4,0.6-0.5,1.1l-1.9-0.3c0.1-0.6,0.3-1.2,0.6-1.6
		c0.3-0.4,0.6-0.7,1.1-0.9c0.5-0.2,1-0.3,1.6-0.3c1,0,1.8,0.3,2.4,1c0.5,0.5,0.8,1.1,0.8,1.8c0,0.9-0.5,1.7-1.5,2.3
		c0.6,0.1,1.1,0.4,1.5,0.9s0.6,1,0.6,1.7c0,0.9-0.3,1.7-1,2.4s-1.5,1-2.6,1c-1,0-1.8-0.3-2.4-0.8S310.5,53.6,310.4,52.7z"/>
	<path class="st1" d="M321.3,46.7v-1.9h2.1v1.9H321.3z M321.3,55.5v-7.8h2.1v7.8H321.3z"/>
	<path class="st1" d="M331.5,55.5h-2.1v-4c0-0.8,0-1.4-0.1-1.6c-0.1-0.2-0.2-0.4-0.4-0.6s-0.4-0.2-0.7-0.2c-0.4,0-0.7,0.1-1,0.3
		s-0.5,0.5-0.6,0.8s-0.2,0.9-0.2,1.8v3.5h-2.1v-7.8h1.9v1.1c0.7-0.9,1.5-1.3,2.6-1.3c0.5,0,0.9,0.1,1.2,0.2c0.4,0.2,0.7,0.4,0.9,0.6
		s0.3,0.5,0.4,0.9c0.1,0.3,0.1,0.8,0.1,1.4V55.5z"/>
</g>
<g>
	<rect x="60.6" y="207.5" class="st11" width="17.1" height="7.2"/>
	<polygon class="st11" points="51.9,211.1 60.6,202.4 60.6,219.8 	"/>
</g>
</svg>
